%TF.GenerationSoftware,KiCad,Pcbnew,(6.0.11)*%
%TF.CreationDate,2026-08-20T00:17:07+05:30*%
%TF.ProjectId,STM32F4VE_custom,53544d33-3246-4345-9645-5f637573746f,rev?*%
%TF.SameCoordinates,Original*%
%TF.FileFunction,Drillmap*%
%TF.FilePolarity,Positive*%
%FSLAX45Y45*%
G04 Gerber Fmt 4.5, Leading zero omitted, Abs format (unit mm)*
G04 Created by KiCad (PCBNEW (6.0.11)) date 2026-08-20 00:17:07*
%MOMM*%
%LPD*%
G01*
G04 APERTURE LIST*
%ADD10C,0.038100*%
%ADD11C,0.200000*%
%ADD12C,0.033020*%
%ADD13C,0.050000*%
%ADD14C,0.100000*%
%ADD15C,0.102000*%
%ADD16C,0.107000*%
%ADD17C,0.110000*%
G04 APERTURE END LIST*
D10*
X11287760Y-10144760D02*
X19537680Y-10144760D01*
X19537680Y-10144760D02*
X19537680Y-19344640D01*
X19537680Y-19344640D02*
X11287760Y-19344640D01*
X11287760Y-19344640D02*
X11287760Y-10144760D01*
D11*
D12*
X12200890Y-17636490D02*
X12233910Y-17669510D01*
X12233910Y-17636490D02*
X12200890Y-17669510D01*
X12320075Y-13872210D02*
X12353095Y-13905230D01*
X12353095Y-13872210D02*
X12320075Y-13905230D01*
X12429490Y-11286490D02*
X12462510Y-11319510D01*
X12462510Y-11286490D02*
X12429490Y-11319510D01*
X12581472Y-16227208D02*
X12614492Y-16260228D01*
X12614492Y-16227208D02*
X12581472Y-16260228D01*
X12785090Y-17458690D02*
X12818110Y-17491710D01*
X12818110Y-17458690D02*
X12785090Y-17491710D01*
X12825730Y-13663930D02*
X12858750Y-13696950D01*
X12858750Y-13663930D02*
X12825730Y-13696950D01*
X12848590Y-11299190D02*
X12881610Y-11332210D01*
X12881610Y-11299190D02*
X12848590Y-11332210D01*
X12886690Y-10727690D02*
X12919710Y-10760710D01*
X12919710Y-10727690D02*
X12886690Y-10760710D01*
X12962890Y-17433290D02*
X12995910Y-17466310D01*
X12995910Y-17433290D02*
X12962890Y-17466310D01*
X13013690Y-16264890D02*
X13046710Y-16297910D01*
X13046710Y-16264890D02*
X13013690Y-16297910D01*
X13069570Y-13303250D02*
X13102590Y-13336270D01*
X13102590Y-13303250D02*
X13069570Y-13336270D01*
X13089890Y-15706090D02*
X13122910Y-15739110D01*
X13122910Y-15706090D02*
X13089890Y-15739110D01*
X13140690Y-16501240D02*
X13173710Y-16534260D01*
X13173710Y-16501240D02*
X13140690Y-16534260D01*
X13166090Y-11375390D02*
X13199110Y-11408410D01*
X13199110Y-11375390D02*
X13166090Y-11408410D01*
X13176250Y-13115290D02*
X13209270Y-13148310D01*
X13209270Y-13115290D02*
X13176250Y-13148310D01*
X13192766Y-18324780D02*
X13225786Y-18357800D01*
X13225786Y-18324780D02*
X13192766Y-18357800D01*
X13211810Y-16976090D02*
X13244830Y-17009110D01*
X13244830Y-16976090D02*
X13211810Y-17009110D01*
X13348970Y-17435780D02*
X13381990Y-17468800D01*
X13381990Y-17435780D02*
X13348970Y-17468800D01*
X13394690Y-15731490D02*
X13427710Y-15764510D01*
X13427710Y-15731490D02*
X13394690Y-15764510D01*
X13394690Y-16501240D02*
X13427710Y-16534260D01*
X13427710Y-16501240D02*
X13394690Y-16534260D01*
X13445490Y-16188690D02*
X13478510Y-16221710D01*
X13478510Y-16188690D02*
X13445490Y-16221710D01*
X13470890Y-18195290D02*
X13503910Y-18228310D01*
X13503910Y-18195290D02*
X13470890Y-18228310D01*
X13674090Y-15706090D02*
X13707110Y-15739110D01*
X13707110Y-15706090D02*
X13674090Y-15739110D01*
X13745210Y-13277850D02*
X13778230Y-13310870D01*
X13778230Y-13277850D02*
X13745210Y-13310870D01*
X13956030Y-15683180D02*
X13989050Y-15716200D01*
X13989050Y-15683180D02*
X13956030Y-15716200D01*
X14065250Y-13206730D02*
X14098270Y-13239750D01*
X14098270Y-13206730D02*
X14065250Y-13239750D01*
X14141450Y-18388330D02*
X14174470Y-18421350D01*
X14174470Y-18388330D02*
X14141450Y-18421350D01*
X14182785Y-15731631D02*
X14215805Y-15764651D01*
X14215805Y-15731631D02*
X14182785Y-15764651D01*
X14258290Y-12378690D02*
X14291310Y-12411710D01*
X14291310Y-12378690D02*
X14258290Y-12411710D01*
X14283690Y-17382490D02*
X14316710Y-17415510D01*
X14316710Y-17382490D02*
X14283690Y-17415510D01*
X14334490Y-16849090D02*
X14367510Y-16882110D01*
X14367510Y-16849090D02*
X14334490Y-16882110D01*
X14363102Y-14866104D02*
X14396122Y-14899124D01*
X14396122Y-14866104D02*
X14363102Y-14899124D01*
X14591030Y-14707870D02*
X14624050Y-14740890D01*
X14624050Y-14707870D02*
X14591030Y-14740890D01*
X14667230Y-14524990D02*
X14700250Y-14558010D01*
X14700250Y-14524990D02*
X14667230Y-14558010D01*
X14669770Y-13796010D02*
X14702790Y-13829030D01*
X14702790Y-13796010D02*
X14669770Y-13829030D01*
X14679930Y-14014450D02*
X14712950Y-14047470D01*
X14712950Y-14014450D02*
X14679930Y-14047470D01*
X14729512Y-13878508D02*
X14762532Y-13911528D01*
X14762532Y-13878508D02*
X14729512Y-13911528D01*
X14763750Y-14408150D02*
X14796770Y-14441170D01*
X14796770Y-14408150D02*
X14763750Y-14441170D01*
X14766290Y-14740890D02*
X14799310Y-14773910D01*
X14799310Y-14740890D02*
X14766290Y-14773910D01*
X14796770Y-18373090D02*
X14829790Y-18406110D01*
X14829790Y-18373090D02*
X14796770Y-18406110D01*
X14837410Y-13856970D02*
X14870430Y-13889990D01*
X14870430Y-13856970D02*
X14837410Y-13889990D01*
X14867890Y-15985490D02*
X14900910Y-16018510D01*
X14900910Y-15985490D02*
X14867890Y-16018510D01*
X14880590Y-12531090D02*
X14913610Y-12564110D01*
X14913610Y-12531090D02*
X14880590Y-12564110D01*
X14880590Y-14804390D02*
X14913610Y-14837410D01*
X14913610Y-14804390D02*
X14880590Y-14837410D01*
X14918690Y-13816330D02*
X14951710Y-13849350D01*
X14951710Y-13816330D02*
X14918690Y-13849350D01*
X14944090Y-11883390D02*
X14977110Y-11916410D01*
X14977110Y-11883390D02*
X14944090Y-11916410D01*
X15020290Y-14108430D02*
X15053310Y-14141450D01*
X15053310Y-14108430D02*
X15020290Y-14141450D01*
X15020290Y-16849090D02*
X15053310Y-16882110D01*
X15053310Y-16849090D02*
X15020290Y-16882110D01*
X15076170Y-14039850D02*
X15109190Y-14072870D01*
X15109190Y-14039850D02*
X15076170Y-14072870D01*
X15147290Y-17712690D02*
X15180310Y-17745710D01*
X15180310Y-17712690D02*
X15147290Y-17745710D01*
X15172690Y-15680690D02*
X15205710Y-15713710D01*
X15205710Y-15680690D02*
X15172690Y-15713710D01*
X15223490Y-13917930D02*
X15256510Y-13950950D01*
X15256510Y-13917930D02*
X15223490Y-13950950D01*
X15309850Y-15233650D02*
X15342870Y-15266670D01*
X15342870Y-15233650D02*
X15309850Y-15266670D01*
X15330230Y-16112490D02*
X15363250Y-16145510D01*
X15363250Y-16112490D02*
X15330230Y-16145510D01*
X15353030Y-13823950D02*
X15386050Y-13856970D01*
X15386050Y-13823950D02*
X15353030Y-13856970D01*
X15426690Y-15706090D02*
X15459710Y-15739110D01*
X15459710Y-15706090D02*
X15426690Y-15739110D01*
X15452090Y-15248890D02*
X15485110Y-15281910D01*
X15485110Y-15248890D02*
X15452090Y-15281910D01*
X15553690Y-15071090D02*
X15586710Y-15104110D01*
X15586710Y-15071090D02*
X15553690Y-15104110D01*
X15604490Y-13966190D02*
X15637510Y-13999210D01*
X15637510Y-13966190D02*
X15604490Y-13999210D01*
X15622688Y-14392492D02*
X15655708Y-14425512D01*
X15655708Y-14392492D02*
X15622688Y-14425512D01*
X15680690Y-13547090D02*
X15713710Y-13580110D01*
X15713710Y-13547090D02*
X15680690Y-13580110D01*
X15680690Y-15655290D02*
X15713710Y-15688310D01*
X15713710Y-15655290D02*
X15680690Y-15688310D01*
X15690850Y-15126970D02*
X15723870Y-15159990D01*
X15723870Y-15126970D02*
X15690850Y-15159990D01*
X15706090Y-14804390D02*
X15739110Y-14837410D01*
X15739110Y-14804390D02*
X15706090Y-14837410D01*
X15718790Y-14296390D02*
X15751810Y-14329410D01*
X15751810Y-14296390D02*
X15718790Y-14329410D01*
X15794990Y-14969490D02*
X15828010Y-15002510D01*
X15828010Y-14969490D02*
X15794990Y-15002510D01*
X15881400Y-15477490D02*
X15914420Y-15510510D01*
X15914420Y-15477490D02*
X15881400Y-15510510D01*
X15909290Y-14867890D02*
X15942310Y-14900910D01*
X15942310Y-14867890D02*
X15909290Y-14900910D01*
X15960090Y-14334490D02*
X15993110Y-14367510D01*
X15993110Y-14334490D02*
X15960090Y-14367510D01*
X15985490Y-14791690D02*
X16018510Y-14824710D01*
X16018510Y-14791690D02*
X15985490Y-14824710D01*
X16015970Y-15716250D02*
X16048990Y-15749270D01*
X16048990Y-15716250D02*
X16015970Y-15749270D01*
X16036290Y-14461490D02*
X16069310Y-14494510D01*
X16069310Y-14461490D02*
X16036290Y-14494510D01*
X16087090Y-14690090D02*
X16120110Y-14723110D01*
X16120110Y-14690090D02*
X16087090Y-14723110D01*
X16163290Y-14563090D02*
X16196310Y-14596110D01*
X16196310Y-14563090D02*
X16163290Y-14596110D01*
X16330930Y-15228570D02*
X16363950Y-15261590D01*
X16363950Y-15228570D02*
X16330930Y-15261590D01*
X16442690Y-14969490D02*
X16475710Y-15002510D01*
X16475710Y-14969490D02*
X16442690Y-15002510D01*
X16452850Y-14885670D02*
X16485870Y-14918690D01*
X16485870Y-14885670D02*
X16452850Y-14918690D01*
X16569690Y-14916200D02*
X16602710Y-14949220D01*
X16602710Y-14916200D02*
X16569690Y-14949220D01*
X16747490Y-12975590D02*
X16780510Y-13008610D01*
X16780510Y-12975590D02*
X16747490Y-13008610D01*
X16948568Y-19081332D02*
X16981588Y-19114352D01*
X16981588Y-19081332D02*
X16948568Y-19114352D01*
X17204690Y-12480290D02*
X17237710Y-12513310D01*
X17237710Y-12480290D02*
X17204690Y-12513310D01*
X17255490Y-11819890D02*
X17288510Y-11852910D01*
X17288510Y-11819890D02*
X17255490Y-11852910D01*
X17268190Y-13254990D02*
X17301210Y-13288010D01*
X17301210Y-13254990D02*
X17268190Y-13288010D01*
X17458690Y-12505690D02*
X17491710Y-12538710D01*
X17491710Y-12505690D02*
X17458690Y-12538710D01*
X17611090Y-12023090D02*
X17644110Y-12056110D01*
X17644110Y-12023090D02*
X17611090Y-12056110D01*
X17712690Y-15985490D02*
X17745710Y-16018510D01*
X17745710Y-15985490D02*
X17712690Y-16018510D01*
X17738090Y-12480290D02*
X17771110Y-12513310D01*
X17771110Y-12480290D02*
X17738090Y-12513310D01*
X17890490Y-16493490D02*
X17923510Y-16526510D01*
X17923510Y-16493490D02*
X17890490Y-16526510D01*
X17992090Y-11565890D02*
X18025110Y-11598910D01*
X18025110Y-11565890D02*
X17992090Y-11598910D01*
X18144490Y-11540490D02*
X18177510Y-11573510D01*
X18177510Y-11540490D02*
X18144490Y-11573510D01*
X18144490Y-16010890D02*
X18177510Y-16043910D01*
X18177510Y-16010890D02*
X18144490Y-16043910D01*
X18207990Y-17636490D02*
X18241010Y-17669510D01*
X18241010Y-17636490D02*
X18207990Y-17669510D01*
X18271490Y-11565890D02*
X18304510Y-11598910D01*
X18304510Y-11565890D02*
X18271490Y-11598910D01*
X18334990Y-16683990D02*
X18368010Y-16717010D01*
X18368010Y-16683990D02*
X18334990Y-16717010D01*
X18449290Y-11565890D02*
X18482310Y-11598910D01*
X18482310Y-11565890D02*
X18449290Y-11598910D01*
X19084290Y-11553190D02*
X19117310Y-11586210D01*
X19117310Y-11553190D02*
X19084290Y-11586210D01*
X19363690Y-10372090D02*
X19396710Y-10405110D01*
X19396710Y-10372090D02*
X19363690Y-10405110D01*
X19376390Y-11553190D02*
X19409410Y-11586210D01*
X19409410Y-11553190D02*
X19376390Y-11586210D01*
D13*
X11647330Y-10477350D02*
G75*
G03*
X11647330Y-10477350I-25000J0D01*
G01*
D11*
X11647330Y-10512350D02*
X11647330Y-10442350D01*
X11597330Y-10512350D02*
X11597330Y-10442350D01*
X11647330Y-10442350D02*
G75*
G03*
X11597330Y-10442350I-25000J0D01*
G01*
X11597330Y-10512350D02*
G75*
G03*
X11647330Y-10512350I25000J0D01*
G01*
D13*
X12307330Y-10477350D02*
G75*
G03*
X12307330Y-10477350I-25000J0D01*
G01*
D11*
X12307330Y-10512350D02*
X12307330Y-10442350D01*
X12257330Y-10512350D02*
X12257330Y-10442350D01*
X12307330Y-10442350D02*
G75*
G03*
X12257330Y-10442350I-25000J0D01*
G01*
X12257330Y-10512350D02*
G75*
G03*
X12307330Y-10512350I25000J0D01*
G01*
D14*
X11625700Y-18609900D02*
X11625700Y-18709900D01*
X11575700Y-18659900D02*
X11675700Y-18659900D01*
X11625700Y-19059900D02*
X11625700Y-19159900D01*
X11575700Y-19109900D02*
X11675700Y-19109900D01*
X12275700Y-18609900D02*
X12275700Y-18709900D01*
X12225700Y-18659900D02*
X12325700Y-18659900D01*
X12275700Y-19059900D02*
X12275700Y-19159900D01*
X12225700Y-19109900D02*
X12325700Y-19109900D01*
X12540100Y-18609500D02*
X12540100Y-18709500D01*
X12490100Y-18659500D02*
X12590100Y-18659500D01*
X12540100Y-19059500D02*
X12540100Y-19159500D01*
X12490100Y-19109500D02*
X12590100Y-19109500D01*
X13190100Y-18609500D02*
X13190100Y-18709500D01*
X13140100Y-18659500D02*
X13240100Y-18659500D01*
X13190100Y-19059500D02*
X13190100Y-19159500D01*
X13140100Y-19109500D02*
X13240100Y-19109500D01*
X17696300Y-18597200D02*
X17696300Y-18697200D01*
X17646300Y-18647200D02*
X17746300Y-18647200D01*
X17696300Y-19047200D02*
X17696300Y-19147200D01*
X17646300Y-19097200D02*
X17746300Y-19097200D01*
X18346300Y-18597200D02*
X18346300Y-18697200D01*
X18296300Y-18647200D02*
X18396300Y-18647200D01*
X18346300Y-19047200D02*
X18346300Y-19147200D01*
X18296300Y-19097200D02*
X18396300Y-19097200D01*
X18610700Y-18596800D02*
X18610700Y-18696800D01*
X18560700Y-18646800D02*
X18660700Y-18646800D01*
X18610700Y-19046800D02*
X18610700Y-19146800D01*
X18560700Y-19096800D02*
X18660700Y-19096800D01*
X19260700Y-18596800D02*
X19260700Y-18696800D01*
X19210700Y-18646800D02*
X19310700Y-18646800D01*
X19260700Y-19046800D02*
X19260700Y-19146800D01*
X19210700Y-19096800D02*
X19310700Y-19096800D01*
D15*
X11665313Y-12213213D02*
X11665313Y-12141087D01*
X11593187Y-12141087D01*
X11593187Y-12213213D01*
X11665313Y-12213213D01*
X11665313Y-12467213D02*
X11665313Y-12395087D01*
X11593187Y-12395087D01*
X11593187Y-12467213D01*
X11665313Y-12467213D01*
X11665313Y-12721213D02*
X11665313Y-12649087D01*
X11593187Y-12649087D01*
X11593187Y-12721213D01*
X11665313Y-12721213D01*
X11665313Y-12975213D02*
X11665313Y-12903087D01*
X11593187Y-12903087D01*
X11593187Y-12975213D01*
X11665313Y-12975213D01*
X11665313Y-13229213D02*
X11665313Y-13157087D01*
X11593187Y-13157087D01*
X11593187Y-13229213D01*
X11665313Y-13229213D01*
X11665313Y-13483213D02*
X11665313Y-13411087D01*
X11593187Y-13411087D01*
X11593187Y-13483213D01*
X11665313Y-13483213D01*
X11665313Y-13737213D02*
X11665313Y-13665087D01*
X11593187Y-13665087D01*
X11593187Y-13737213D01*
X11665313Y-13737213D01*
X11665313Y-13991213D02*
X11665313Y-13919087D01*
X11593187Y-13919087D01*
X11593187Y-13991213D01*
X11665313Y-13991213D01*
X11665313Y-14245213D02*
X11665313Y-14173087D01*
X11593187Y-14173087D01*
X11593187Y-14245213D01*
X11665313Y-14245213D01*
X11665313Y-14499213D02*
X11665313Y-14427087D01*
X11593187Y-14427087D01*
X11593187Y-14499213D01*
X11665313Y-14499213D01*
X11665313Y-14753213D02*
X11665313Y-14681087D01*
X11593187Y-14681087D01*
X11593187Y-14753213D01*
X11665313Y-14753213D01*
X11665313Y-15007213D02*
X11665313Y-14935087D01*
X11593187Y-14935087D01*
X11593187Y-15007213D01*
X11665313Y-15007213D01*
X11665313Y-15261213D02*
X11665313Y-15189087D01*
X11593187Y-15189087D01*
X11593187Y-15261213D01*
X11665313Y-15261213D01*
X11665313Y-15515213D02*
X11665313Y-15443087D01*
X11593187Y-15443087D01*
X11593187Y-15515213D01*
X11665313Y-15515213D01*
X11665313Y-15769213D02*
X11665313Y-15697087D01*
X11593187Y-15697087D01*
X11593187Y-15769213D01*
X11665313Y-15769213D01*
X11665313Y-16023213D02*
X11665313Y-15951087D01*
X11593187Y-15951087D01*
X11593187Y-16023213D01*
X11665313Y-16023213D01*
X11665313Y-16277213D02*
X11665313Y-16205087D01*
X11593187Y-16205087D01*
X11593187Y-16277213D01*
X11665313Y-16277213D01*
X11665313Y-16531213D02*
X11665313Y-16459087D01*
X11593187Y-16459087D01*
X11593187Y-16531213D01*
X11665313Y-16531213D01*
X11665313Y-16785213D02*
X11665313Y-16713087D01*
X11593187Y-16713087D01*
X11593187Y-16785213D01*
X11665313Y-16785213D01*
X11665313Y-17039213D02*
X11665313Y-16967087D01*
X11593187Y-16967087D01*
X11593187Y-17039213D01*
X11665313Y-17039213D01*
X11665313Y-17293213D02*
X11665313Y-17221087D01*
X11593187Y-17221087D01*
X11593187Y-17293213D01*
X11665313Y-17293213D01*
X11665313Y-17547213D02*
X11665313Y-17475087D01*
X11593187Y-17475087D01*
X11593187Y-17547213D01*
X11665313Y-17547213D01*
X11665313Y-17801213D02*
X11665313Y-17729087D01*
X11593187Y-17729087D01*
X11593187Y-17801213D01*
X11665313Y-17801213D01*
X11665313Y-18055213D02*
X11665313Y-17983087D01*
X11593187Y-17983087D01*
X11593187Y-18055213D01*
X11665313Y-18055213D01*
X11919313Y-12213213D02*
X11919313Y-12141087D01*
X11847187Y-12141087D01*
X11847187Y-12213213D01*
X11919313Y-12213213D01*
X11919313Y-12467213D02*
X11919313Y-12395087D01*
X11847187Y-12395087D01*
X11847187Y-12467213D01*
X11919313Y-12467213D01*
X11919313Y-12721213D02*
X11919313Y-12649087D01*
X11847187Y-12649087D01*
X11847187Y-12721213D01*
X11919313Y-12721213D01*
X11919313Y-12975213D02*
X11919313Y-12903087D01*
X11847187Y-12903087D01*
X11847187Y-12975213D01*
X11919313Y-12975213D01*
X11919313Y-13229213D02*
X11919313Y-13157087D01*
X11847187Y-13157087D01*
X11847187Y-13229213D01*
X11919313Y-13229213D01*
X11919313Y-13483213D02*
X11919313Y-13411087D01*
X11847187Y-13411087D01*
X11847187Y-13483213D01*
X11919313Y-13483213D01*
X11919313Y-13737213D02*
X11919313Y-13665087D01*
X11847187Y-13665087D01*
X11847187Y-13737213D01*
X11919313Y-13737213D01*
X11919313Y-13991213D02*
X11919313Y-13919087D01*
X11847187Y-13919087D01*
X11847187Y-13991213D01*
X11919313Y-13991213D01*
X11919313Y-14245213D02*
X11919313Y-14173087D01*
X11847187Y-14173087D01*
X11847187Y-14245213D01*
X11919313Y-14245213D01*
X11919313Y-14499213D02*
X11919313Y-14427087D01*
X11847187Y-14427087D01*
X11847187Y-14499213D01*
X11919313Y-14499213D01*
X11919313Y-14753213D02*
X11919313Y-14681087D01*
X11847187Y-14681087D01*
X11847187Y-14753213D01*
X11919313Y-14753213D01*
X11919313Y-15007213D02*
X11919313Y-14935087D01*
X11847187Y-14935087D01*
X11847187Y-15007213D01*
X11919313Y-15007213D01*
X11919313Y-15261213D02*
X11919313Y-15189087D01*
X11847187Y-15189087D01*
X11847187Y-15261213D01*
X11919313Y-15261213D01*
X11919313Y-15515213D02*
X11919313Y-15443087D01*
X11847187Y-15443087D01*
X11847187Y-15515213D01*
X11919313Y-15515213D01*
X11919313Y-15769213D02*
X11919313Y-15697087D01*
X11847187Y-15697087D01*
X11847187Y-15769213D01*
X11919313Y-15769213D01*
X11919313Y-16023213D02*
X11919313Y-15951087D01*
X11847187Y-15951087D01*
X11847187Y-16023213D01*
X11919313Y-16023213D01*
X11919313Y-16277213D02*
X11919313Y-16205087D01*
X11847187Y-16205087D01*
X11847187Y-16277213D01*
X11919313Y-16277213D01*
X11919313Y-16531213D02*
X11919313Y-16459087D01*
X11847187Y-16459087D01*
X11847187Y-16531213D01*
X11919313Y-16531213D01*
X11919313Y-16785213D02*
X11919313Y-16713087D01*
X11847187Y-16713087D01*
X11847187Y-16785213D01*
X11919313Y-16785213D01*
X11919313Y-17039213D02*
X11919313Y-16967087D01*
X11847187Y-16967087D01*
X11847187Y-17039213D01*
X11919313Y-17039213D01*
X11919313Y-17293213D02*
X11919313Y-17221087D01*
X11847187Y-17221087D01*
X11847187Y-17293213D01*
X11919313Y-17293213D01*
X11919313Y-17547213D02*
X11919313Y-17475087D01*
X11847187Y-17475087D01*
X11847187Y-17547213D01*
X11919313Y-17547213D01*
X11919313Y-17801213D02*
X11919313Y-17729087D01*
X11847187Y-17729087D01*
X11847187Y-17801213D01*
X11919313Y-17801213D01*
X11919313Y-18055213D02*
X11919313Y-17983087D01*
X11847187Y-17983087D01*
X11847187Y-18055213D01*
X11919313Y-18055213D01*
X13574263Y-18768563D02*
X13574263Y-18696437D01*
X13502137Y-18696437D01*
X13502137Y-18768563D01*
X13574263Y-18768563D01*
X13574263Y-19022563D02*
X13574263Y-18950437D01*
X13502137Y-18950437D01*
X13502137Y-19022563D01*
X13574263Y-19022563D01*
X13828263Y-18768563D02*
X13828263Y-18696437D01*
X13756137Y-18696437D01*
X13756137Y-18768563D01*
X13828263Y-18768563D01*
X13828263Y-19022563D02*
X13828263Y-18950437D01*
X13756137Y-18950437D01*
X13756137Y-19022563D01*
X13828263Y-19022563D01*
X14082263Y-18768563D02*
X14082263Y-18696437D01*
X14010137Y-18696437D01*
X14010137Y-18768563D01*
X14082263Y-18768563D01*
X14082263Y-19022563D02*
X14082263Y-18950437D01*
X14010137Y-18950437D01*
X14010137Y-19022563D01*
X14082263Y-19022563D01*
X14336263Y-18768563D02*
X14336263Y-18696437D01*
X14264137Y-18696437D01*
X14264137Y-18768563D01*
X14336263Y-18768563D01*
X14336263Y-19022563D02*
X14336263Y-18950437D01*
X14264137Y-18950437D01*
X14264137Y-19022563D01*
X14336263Y-19022563D01*
X14590263Y-18768563D02*
X14590263Y-18696437D01*
X14518137Y-18696437D01*
X14518137Y-18768563D01*
X14590263Y-18768563D01*
X14590263Y-19022563D02*
X14590263Y-18950437D01*
X14518137Y-18950437D01*
X14518137Y-19022563D01*
X14590263Y-19022563D01*
X14844263Y-18768563D02*
X14844263Y-18696437D01*
X14772137Y-18696437D01*
X14772137Y-18768563D01*
X14844263Y-18768563D01*
X14844263Y-19022563D02*
X14844263Y-18950437D01*
X14772137Y-18950437D01*
X14772137Y-19022563D01*
X14844263Y-19022563D01*
X15098263Y-18768563D02*
X15098263Y-18696437D01*
X15026137Y-18696437D01*
X15026137Y-18768563D01*
X15098263Y-18768563D01*
X15098263Y-19022563D02*
X15098263Y-18950437D01*
X15026137Y-18950437D01*
X15026137Y-19022563D01*
X15098263Y-19022563D01*
X15352263Y-18768563D02*
X15352263Y-18696437D01*
X15280137Y-18696437D01*
X15280137Y-18768563D01*
X15352263Y-18768563D01*
X15352263Y-19022563D02*
X15352263Y-18950437D01*
X15280137Y-18950437D01*
X15280137Y-19022563D01*
X15352263Y-19022563D01*
X15606263Y-18768563D02*
X15606263Y-18696437D01*
X15534137Y-18696437D01*
X15534137Y-18768563D01*
X15606263Y-18768563D01*
X15606263Y-19022563D02*
X15606263Y-18950437D01*
X15534137Y-18950437D01*
X15534137Y-19022563D01*
X15606263Y-19022563D01*
X15860263Y-18768563D02*
X15860263Y-18696437D01*
X15788137Y-18696437D01*
X15788137Y-18768563D01*
X15860263Y-18768563D01*
X15860263Y-19022563D02*
X15860263Y-18950437D01*
X15788137Y-18950437D01*
X15788137Y-19022563D01*
X15860263Y-19022563D01*
X16114263Y-18768563D02*
X16114263Y-18696437D01*
X16042137Y-18696437D01*
X16042137Y-18768563D01*
X16114263Y-18768563D01*
X16114263Y-19022563D02*
X16114263Y-18950437D01*
X16042137Y-18950437D01*
X16042137Y-19022563D01*
X16114263Y-19022563D01*
X16368263Y-18768563D02*
X16368263Y-18696437D01*
X16296137Y-18696437D01*
X16296137Y-18768563D01*
X16368263Y-18768563D01*
X16368263Y-19022563D02*
X16368263Y-18950437D01*
X16296137Y-18950437D01*
X16296137Y-19022563D01*
X16368263Y-19022563D01*
X16622263Y-18768563D02*
X16622263Y-18696437D01*
X16550137Y-18696437D01*
X16550137Y-18768563D01*
X16622263Y-18768563D01*
X16622263Y-19022563D02*
X16622263Y-18950437D01*
X16550137Y-18950437D01*
X16550137Y-19022563D01*
X16622263Y-19022563D01*
X16876263Y-18768563D02*
X16876263Y-18696437D01*
X16804137Y-18696437D01*
X16804137Y-18768563D01*
X16876263Y-18768563D01*
X16876263Y-19022563D02*
X16876263Y-18950437D01*
X16804137Y-18950437D01*
X16804137Y-19022563D01*
X16876263Y-19022563D01*
X17130263Y-18768563D02*
X17130263Y-18696437D01*
X17058137Y-18696437D01*
X17058137Y-18768563D01*
X17130263Y-18768563D01*
X17130263Y-19022563D02*
X17130263Y-18950437D01*
X17058137Y-18950437D01*
X17058137Y-19022563D01*
X17130263Y-19022563D01*
X17384263Y-18768563D02*
X17384263Y-18696437D01*
X17312137Y-18696437D01*
X17312137Y-18768563D01*
X17384263Y-18768563D01*
X17384263Y-19022563D02*
X17384263Y-18950437D01*
X17312137Y-18950437D01*
X17312137Y-19022563D01*
X17384263Y-19022563D01*
X19035263Y-12155213D02*
X19035263Y-12083087D01*
X18963137Y-12083087D01*
X18963137Y-12155213D01*
X19035263Y-12155213D01*
X19035263Y-12409213D02*
X19035263Y-12337087D01*
X18963137Y-12337087D01*
X18963137Y-12409213D01*
X19035263Y-12409213D01*
X19035263Y-12663213D02*
X19035263Y-12591087D01*
X18963137Y-12591087D01*
X18963137Y-12663213D01*
X19035263Y-12663213D01*
X19035263Y-12917213D02*
X19035263Y-12845087D01*
X18963137Y-12845087D01*
X18963137Y-12917213D01*
X19035263Y-12917213D01*
X19035263Y-13171213D02*
X19035263Y-13099087D01*
X18963137Y-13099087D01*
X18963137Y-13171213D01*
X19035263Y-13171213D01*
X19035263Y-13425213D02*
X19035263Y-13353087D01*
X18963137Y-13353087D01*
X18963137Y-13425213D01*
X19035263Y-13425213D01*
X19035263Y-13679213D02*
X19035263Y-13607087D01*
X18963137Y-13607087D01*
X18963137Y-13679213D01*
X19035263Y-13679213D01*
X19035263Y-13933213D02*
X19035263Y-13861087D01*
X18963137Y-13861087D01*
X18963137Y-13933213D01*
X19035263Y-13933213D01*
X19035263Y-14187213D02*
X19035263Y-14115087D01*
X18963137Y-14115087D01*
X18963137Y-14187213D01*
X19035263Y-14187213D01*
X19035263Y-14441213D02*
X19035263Y-14369087D01*
X18963137Y-14369087D01*
X18963137Y-14441213D01*
X19035263Y-14441213D01*
X19035263Y-14695213D02*
X19035263Y-14623087D01*
X18963137Y-14623087D01*
X18963137Y-14695213D01*
X19035263Y-14695213D01*
X19035263Y-14949213D02*
X19035263Y-14877087D01*
X18963137Y-14877087D01*
X18963137Y-14949213D01*
X19035263Y-14949213D01*
X19035263Y-15203213D02*
X19035263Y-15131087D01*
X18963137Y-15131087D01*
X18963137Y-15203213D01*
X19035263Y-15203213D01*
X19035263Y-15457213D02*
X19035263Y-15385087D01*
X18963137Y-15385087D01*
X18963137Y-15457213D01*
X19035263Y-15457213D01*
X19035263Y-15711213D02*
X19035263Y-15639087D01*
X18963137Y-15639087D01*
X18963137Y-15711213D01*
X19035263Y-15711213D01*
X19035263Y-15965213D02*
X19035263Y-15893087D01*
X18963137Y-15893087D01*
X18963137Y-15965213D01*
X19035263Y-15965213D01*
X19035263Y-16219213D02*
X19035263Y-16147087D01*
X18963137Y-16147087D01*
X18963137Y-16219213D01*
X19035263Y-16219213D01*
X19035263Y-16473213D02*
X19035263Y-16401087D01*
X18963137Y-16401087D01*
X18963137Y-16473213D01*
X19035263Y-16473213D01*
X19035263Y-16727213D02*
X19035263Y-16655087D01*
X18963137Y-16655087D01*
X18963137Y-16727213D01*
X19035263Y-16727213D01*
X19035263Y-16981213D02*
X19035263Y-16909087D01*
X18963137Y-16909087D01*
X18963137Y-16981213D01*
X19035263Y-16981213D01*
X19035263Y-17235213D02*
X19035263Y-17163087D01*
X18963137Y-17163087D01*
X18963137Y-17235213D01*
X19035263Y-17235213D01*
X19035263Y-17489213D02*
X19035263Y-17417087D01*
X18963137Y-17417087D01*
X18963137Y-17489213D01*
X19035263Y-17489213D01*
X19035263Y-17743213D02*
X19035263Y-17671087D01*
X18963137Y-17671087D01*
X18963137Y-17743213D01*
X19035263Y-17743213D01*
X19035263Y-17997213D02*
X19035263Y-17925087D01*
X18963137Y-17925087D01*
X18963137Y-17997213D01*
X19035263Y-17997213D01*
X19289263Y-12155213D02*
X19289263Y-12083087D01*
X19217137Y-12083087D01*
X19217137Y-12155213D01*
X19289263Y-12155213D01*
X19289263Y-12409213D02*
X19289263Y-12337087D01*
X19217137Y-12337087D01*
X19217137Y-12409213D01*
X19289263Y-12409213D01*
X19289263Y-12663213D02*
X19289263Y-12591087D01*
X19217137Y-12591087D01*
X19217137Y-12663213D01*
X19289263Y-12663213D01*
X19289263Y-12917213D02*
X19289263Y-12845087D01*
X19217137Y-12845087D01*
X19217137Y-12917213D01*
X19289263Y-12917213D01*
X19289263Y-13171213D02*
X19289263Y-13099087D01*
X19217137Y-13099087D01*
X19217137Y-13171213D01*
X19289263Y-13171213D01*
X19289263Y-13425213D02*
X19289263Y-13353087D01*
X19217137Y-13353087D01*
X19217137Y-13425213D01*
X19289263Y-13425213D01*
X19289263Y-13679213D02*
X19289263Y-13607087D01*
X19217137Y-13607087D01*
X19217137Y-13679213D01*
X19289263Y-13679213D01*
X19289263Y-13933213D02*
X19289263Y-13861087D01*
X19217137Y-13861087D01*
X19217137Y-13933213D01*
X19289263Y-13933213D01*
X19289263Y-14187213D02*
X19289263Y-14115087D01*
X19217137Y-14115087D01*
X19217137Y-14187213D01*
X19289263Y-14187213D01*
X19289263Y-14441213D02*
X19289263Y-14369087D01*
X19217137Y-14369087D01*
X19217137Y-14441213D01*
X19289263Y-14441213D01*
X19289263Y-14695213D02*
X19289263Y-14623087D01*
X19217137Y-14623087D01*
X19217137Y-14695213D01*
X19289263Y-14695213D01*
X19289263Y-14949213D02*
X19289263Y-14877087D01*
X19217137Y-14877087D01*
X19217137Y-14949213D01*
X19289263Y-14949213D01*
X19289263Y-15203213D02*
X19289263Y-15131087D01*
X19217137Y-15131087D01*
X19217137Y-15203213D01*
X19289263Y-15203213D01*
X19289263Y-15457213D02*
X19289263Y-15385087D01*
X19217137Y-15385087D01*
X19217137Y-15457213D01*
X19289263Y-15457213D01*
X19289263Y-15711213D02*
X19289263Y-15639087D01*
X19217137Y-15639087D01*
X19217137Y-15711213D01*
X19289263Y-15711213D01*
X19289263Y-15965213D02*
X19289263Y-15893087D01*
X19217137Y-15893087D01*
X19217137Y-15965213D01*
X19289263Y-15965213D01*
X19289263Y-16219213D02*
X19289263Y-16147087D01*
X19217137Y-16147087D01*
X19217137Y-16219213D01*
X19289263Y-16219213D01*
X19289263Y-16473213D02*
X19289263Y-16401087D01*
X19217137Y-16401087D01*
X19217137Y-16473213D01*
X19289263Y-16473213D01*
X19289263Y-16727213D02*
X19289263Y-16655087D01*
X19217137Y-16655087D01*
X19217137Y-16727213D01*
X19289263Y-16727213D01*
X19289263Y-16981213D02*
X19289263Y-16909087D01*
X19217137Y-16909087D01*
X19217137Y-16981213D01*
X19289263Y-16981213D01*
X19289263Y-17235213D02*
X19289263Y-17163087D01*
X19217137Y-17163087D01*
X19217137Y-17235213D01*
X19289263Y-17235213D01*
X19289263Y-17489213D02*
X19289263Y-17417087D01*
X19217137Y-17417087D01*
X19217137Y-17489213D01*
X19289263Y-17489213D01*
X19289263Y-17743213D02*
X19289263Y-17671087D01*
X19217137Y-17671087D01*
X19217137Y-17743213D01*
X19289263Y-17743213D01*
X19289263Y-17997213D02*
X19289263Y-17925087D01*
X19217137Y-17925087D01*
X19217137Y-17997213D01*
X19289263Y-17997213D01*
D16*
X11643755Y-11552400D02*
X11697255Y-11498900D01*
X11643755Y-11445400D01*
X11590255Y-11498900D01*
X11643755Y-11552400D01*
X11643755Y-11806400D02*
X11697255Y-11752900D01*
X11643755Y-11699400D01*
X11590255Y-11752900D01*
X11643755Y-11806400D01*
X11897755Y-11552400D02*
X11951255Y-11498900D01*
X11897755Y-11445400D01*
X11844255Y-11498900D01*
X11897755Y-11552400D01*
X11897755Y-11806400D02*
X11951255Y-11752900D01*
X11897755Y-11699400D01*
X11844255Y-11752900D01*
X11897755Y-11806400D01*
X12151755Y-11552400D02*
X12205255Y-11498900D01*
X12151755Y-11445400D01*
X12098255Y-11498900D01*
X12151755Y-11552400D01*
X12151755Y-11806400D02*
X12205255Y-11752900D01*
X12151755Y-11699400D01*
X12098255Y-11752900D01*
X12151755Y-11806400D01*
X12405755Y-11552400D02*
X12459255Y-11498900D01*
X12405755Y-11445400D01*
X12352255Y-11498900D01*
X12405755Y-11552400D01*
X12405755Y-11806400D02*
X12459255Y-11752900D01*
X12405755Y-11699400D01*
X12352255Y-11752900D01*
X12405755Y-11806400D01*
D17*
X14067400Y-10511400D02*
X14177400Y-10621400D01*
X14177400Y-10511400D02*
X14067400Y-10621400D01*
X14177400Y-10566400D02*
G75*
G03*
X14177400Y-10566400I-55000J0D01*
G01*
X14067400Y-10765400D02*
X14177400Y-10875400D01*
X14177400Y-10765400D02*
X14067400Y-10875400D01*
X14177400Y-10820400D02*
G75*
G03*
X14177400Y-10820400I-55000J0D01*
G01*
X14321400Y-10511400D02*
X14431400Y-10621400D01*
X14431400Y-10511400D02*
X14321400Y-10621400D01*
X14431400Y-10566400D02*
G75*
G03*
X14431400Y-10566400I-55000J0D01*
G01*
X14321400Y-10765400D02*
X14431400Y-10875400D01*
X14431400Y-10765400D02*
X14321400Y-10875400D01*
X14431400Y-10820400D02*
G75*
G03*
X14431400Y-10820400I-55000J0D01*
G01*
X14575400Y-10511400D02*
X14685400Y-10621400D01*
X14685400Y-10511400D02*
X14575400Y-10621400D01*
X14685400Y-10566400D02*
G75*
G03*
X14685400Y-10566400I-55000J0D01*
G01*
X14575400Y-10765400D02*
X14685400Y-10875400D01*
X14685400Y-10765400D02*
X14575400Y-10875400D01*
X14685400Y-10820400D02*
G75*
G03*
X14685400Y-10820400I-55000J0D01*
G01*
X14829400Y-10511400D02*
X14939400Y-10621400D01*
X14939400Y-10511400D02*
X14829400Y-10621400D01*
X14939400Y-10566400D02*
G75*
G03*
X14939400Y-10566400I-55000J0D01*
G01*
X14829400Y-10765400D02*
X14939400Y-10875400D01*
X14939400Y-10765400D02*
X14829400Y-10875400D01*
X14939400Y-10820400D02*
G75*
G03*
X14939400Y-10820400I-55000J0D01*
G01*
X15083400Y-10511400D02*
X15193400Y-10621400D01*
X15193400Y-10511400D02*
X15083400Y-10621400D01*
X15193400Y-10566400D02*
G75*
G03*
X15193400Y-10566400I-55000J0D01*
G01*
X15083400Y-10765400D02*
X15193400Y-10875400D01*
X15193400Y-10765400D02*
X15083400Y-10875400D01*
X15193400Y-10820400D02*
G75*
G03*
X15193400Y-10820400I-55000J0D01*
G01*
X15337400Y-10511400D02*
X15447400Y-10621400D01*
X15447400Y-10511400D02*
X15337400Y-10621400D01*
X15447400Y-10566400D02*
G75*
G03*
X15447400Y-10566400I-55000J0D01*
G01*
X15337400Y-10765400D02*
X15447400Y-10875400D01*
X15447400Y-10765400D02*
X15337400Y-10875400D01*
X15447400Y-10820400D02*
G75*
G03*
X15447400Y-10820400I-55000J0D01*
G01*
X15591400Y-10511400D02*
X15701400Y-10621400D01*
X15701400Y-10511400D02*
X15591400Y-10621400D01*
X15701400Y-10566400D02*
G75*
G03*
X15701400Y-10566400I-55000J0D01*
G01*
X15591400Y-10765400D02*
X15701400Y-10875400D01*
X15701400Y-10765400D02*
X15591400Y-10875400D01*
X15701400Y-10820400D02*
G75*
G03*
X15701400Y-10820400I-55000J0D01*
G01*
X15845400Y-10511400D02*
X15955400Y-10621400D01*
X15955400Y-10511400D02*
X15845400Y-10621400D01*
X15955400Y-10566400D02*
G75*
G03*
X15955400Y-10566400I-55000J0D01*
G01*
X15845400Y-10765400D02*
X15955400Y-10875400D01*
X15955400Y-10765400D02*
X15845400Y-10875400D01*
X15955400Y-10820400D02*
G75*
G03*
X15955400Y-10820400I-55000J0D01*
G01*
X16093750Y-11329000D02*
X16203750Y-11439000D01*
X16203750Y-11329000D02*
X16093750Y-11439000D01*
X16203750Y-11384000D02*
G75*
G03*
X16203750Y-11384000I-55000J0D01*
G01*
X16099400Y-10511400D02*
X16209400Y-10621400D01*
X16209400Y-10511400D02*
X16099400Y-10621400D01*
X16209400Y-10566400D02*
G75*
G03*
X16209400Y-10566400I-55000J0D01*
G01*
X16099400Y-10765400D02*
X16209400Y-10875400D01*
X16209400Y-10765400D02*
X16099400Y-10875400D01*
X16209400Y-10820400D02*
G75*
G03*
X16209400Y-10820400I-55000J0D01*
G01*
X16347750Y-11329000D02*
X16457750Y-11439000D01*
X16457750Y-11329000D02*
X16347750Y-11439000D01*
X16457750Y-11384000D02*
G75*
G03*
X16457750Y-11384000I-55000J0D01*
G01*
X16353400Y-10511400D02*
X16463400Y-10621400D01*
X16463400Y-10511400D02*
X16353400Y-10621400D01*
X16463400Y-10566400D02*
G75*
G03*
X16463400Y-10566400I-55000J0D01*
G01*
X16353400Y-10765400D02*
X16463400Y-10875400D01*
X16463400Y-10765400D02*
X16353400Y-10875400D01*
X16463400Y-10820400D02*
G75*
G03*
X16463400Y-10820400I-55000J0D01*
G01*
X16601750Y-11329000D02*
X16711750Y-11439000D01*
X16711750Y-11329000D02*
X16601750Y-11439000D01*
X16711750Y-11384000D02*
G75*
G03*
X16711750Y-11384000I-55000J0D01*
G01*
X16855750Y-11329000D02*
X16965750Y-11439000D01*
X16965750Y-11329000D02*
X16855750Y-11439000D01*
X16965750Y-11384000D02*
G75*
G03*
X16965750Y-11384000I-55000J0D01*
G01*
D11*
X11543474Y-19657021D02*
X11543474Y-19457021D01*
X11591093Y-19457021D01*
X11619664Y-19466545D01*
X11638712Y-19485593D01*
X11648236Y-19504640D01*
X11657760Y-19542735D01*
X11657760Y-19571307D01*
X11648236Y-19609402D01*
X11638712Y-19628450D01*
X11619664Y-19647497D01*
X11591093Y-19657021D01*
X11543474Y-19657021D01*
X11743474Y-19657021D02*
X11743474Y-19523688D01*
X11743474Y-19561783D02*
X11752998Y-19542735D01*
X11762522Y-19533212D01*
X11781569Y-19523688D01*
X11800617Y-19523688D01*
X11867283Y-19657021D02*
X11867283Y-19523688D01*
X11867283Y-19457021D02*
X11857760Y-19466545D01*
X11867283Y-19476069D01*
X11876807Y-19466545D01*
X11867283Y-19457021D01*
X11867283Y-19476069D01*
X11991093Y-19657021D02*
X11972045Y-19647497D01*
X11962522Y-19628450D01*
X11962522Y-19457021D01*
X12095855Y-19657021D02*
X12076807Y-19647497D01*
X12067283Y-19628450D01*
X12067283Y-19457021D01*
X12324426Y-19657021D02*
X12324426Y-19457021D01*
X12391093Y-19599878D01*
X12457760Y-19457021D01*
X12457760Y-19657021D01*
X12638712Y-19657021D02*
X12638712Y-19552259D01*
X12629188Y-19533212D01*
X12610141Y-19523688D01*
X12572045Y-19523688D01*
X12552998Y-19533212D01*
X12638712Y-19647497D02*
X12619664Y-19657021D01*
X12572045Y-19657021D01*
X12552998Y-19647497D01*
X12543474Y-19628450D01*
X12543474Y-19609402D01*
X12552998Y-19590355D01*
X12572045Y-19580831D01*
X12619664Y-19580831D01*
X12638712Y-19571307D01*
X12733950Y-19523688D02*
X12733950Y-19723688D01*
X12733950Y-19533212D02*
X12752998Y-19523688D01*
X12791093Y-19523688D01*
X12810141Y-19533212D01*
X12819664Y-19542735D01*
X12829188Y-19561783D01*
X12829188Y-19618926D01*
X12819664Y-19637974D01*
X12810141Y-19647497D01*
X12791093Y-19657021D01*
X12752998Y-19657021D01*
X12733950Y-19647497D01*
X12914903Y-19637974D02*
X12924426Y-19647497D01*
X12914903Y-19657021D01*
X12905379Y-19647497D01*
X12914903Y-19637974D01*
X12914903Y-19657021D01*
X12914903Y-19533212D02*
X12924426Y-19542735D01*
X12914903Y-19552259D01*
X12905379Y-19542735D01*
X12914903Y-19533212D01*
X12914903Y-19552259D01*
D12*
X11252835Y-19970035D02*
X11285855Y-20003055D01*
X11285855Y-19970035D02*
X11252835Y-20003055D01*
D11*
X11581569Y-19877021D02*
X11600617Y-19877021D01*
X11619664Y-19886545D01*
X11629188Y-19896069D01*
X11638712Y-19915116D01*
X11648236Y-19953212D01*
X11648236Y-20000831D01*
X11638712Y-20038926D01*
X11629188Y-20057974D01*
X11619664Y-20067497D01*
X11600617Y-20077021D01*
X11581569Y-20077021D01*
X11562522Y-20067497D01*
X11552998Y-20057974D01*
X11543474Y-20038926D01*
X11533950Y-20000831D01*
X11533950Y-19953212D01*
X11543474Y-19915116D01*
X11552998Y-19896069D01*
X11562522Y-19886545D01*
X11581569Y-19877021D01*
X11733950Y-20057974D02*
X11743474Y-20067497D01*
X11733950Y-20077021D01*
X11724426Y-20067497D01*
X11733950Y-20057974D01*
X11733950Y-20077021D01*
X11810141Y-19877021D02*
X11933950Y-19877021D01*
X11867283Y-19953212D01*
X11895855Y-19953212D01*
X11914903Y-19962735D01*
X11924426Y-19972259D01*
X11933950Y-19991307D01*
X11933950Y-20038926D01*
X11924426Y-20057974D01*
X11914903Y-20067497D01*
X11895855Y-20077021D01*
X11838712Y-20077021D01*
X11819664Y-20067497D01*
X11810141Y-20057974D01*
X12000617Y-19877021D02*
X12124426Y-19877021D01*
X12057760Y-19953212D01*
X12086331Y-19953212D01*
X12105379Y-19962735D01*
X12114903Y-19972259D01*
X12124426Y-19991307D01*
X12124426Y-20038926D01*
X12114903Y-20057974D01*
X12105379Y-20067497D01*
X12086331Y-20077021D01*
X12029188Y-20077021D01*
X12010141Y-20067497D01*
X12000617Y-20057974D01*
X12248236Y-19877021D02*
X12267283Y-19877021D01*
X12286331Y-19886545D01*
X12295855Y-19896069D01*
X12305379Y-19915116D01*
X12314903Y-19953212D01*
X12314903Y-20000831D01*
X12305379Y-20038926D01*
X12295855Y-20057974D01*
X12286331Y-20067497D01*
X12267283Y-20077021D01*
X12248236Y-20077021D01*
X12229188Y-20067497D01*
X12219664Y-20057974D01*
X12210141Y-20038926D01*
X12200617Y-20000831D01*
X12200617Y-19953212D01*
X12210141Y-19915116D01*
X12219664Y-19896069D01*
X12229188Y-19886545D01*
X12248236Y-19877021D01*
X12400617Y-20077021D02*
X12400617Y-19943688D01*
X12400617Y-19962735D02*
X12410141Y-19953212D01*
X12429188Y-19943688D01*
X12457760Y-19943688D01*
X12476807Y-19953212D01*
X12486331Y-19972259D01*
X12486331Y-20077021D01*
X12486331Y-19972259D02*
X12495855Y-19953212D01*
X12514903Y-19943688D01*
X12543474Y-19943688D01*
X12562522Y-19953212D01*
X12572045Y-19972259D01*
X12572045Y-20077021D01*
X12667283Y-20077021D02*
X12667283Y-19943688D01*
X12667283Y-19962735D02*
X12676807Y-19953212D01*
X12695855Y-19943688D01*
X12724426Y-19943688D01*
X12743474Y-19953212D01*
X12752998Y-19972259D01*
X12752998Y-20077021D01*
X12752998Y-19972259D02*
X12762522Y-19953212D01*
X12781569Y-19943688D01*
X12810141Y-19943688D01*
X12829188Y-19953212D01*
X12838712Y-19972259D01*
X12838712Y-20077021D01*
X13229188Y-19867497D02*
X13057760Y-20124640D01*
X13486331Y-19877021D02*
X13505379Y-19877021D01*
X13524426Y-19886545D01*
X13533950Y-19896069D01*
X13543474Y-19915116D01*
X13552998Y-19953212D01*
X13552998Y-20000831D01*
X13543474Y-20038926D01*
X13533950Y-20057974D01*
X13524426Y-20067497D01*
X13505379Y-20077021D01*
X13486331Y-20077021D01*
X13467283Y-20067497D01*
X13457760Y-20057974D01*
X13448236Y-20038926D01*
X13438712Y-20000831D01*
X13438712Y-19953212D01*
X13448236Y-19915116D01*
X13457760Y-19896069D01*
X13467283Y-19886545D01*
X13486331Y-19877021D01*
X13638712Y-20057974D02*
X13648236Y-20067497D01*
X13638712Y-20077021D01*
X13629188Y-20067497D01*
X13638712Y-20057974D01*
X13638712Y-20077021D01*
X13772045Y-19877021D02*
X13791093Y-19877021D01*
X13810141Y-19886545D01*
X13819664Y-19896069D01*
X13829188Y-19915116D01*
X13838712Y-19953212D01*
X13838712Y-20000831D01*
X13829188Y-20038926D01*
X13819664Y-20057974D01*
X13810141Y-20067497D01*
X13791093Y-20077021D01*
X13772045Y-20077021D01*
X13752998Y-20067497D01*
X13743474Y-20057974D01*
X13733950Y-20038926D01*
X13724426Y-20000831D01*
X13724426Y-19953212D01*
X13733950Y-19915116D01*
X13743474Y-19896069D01*
X13752998Y-19886545D01*
X13772045Y-19877021D01*
X14029188Y-20077021D02*
X13914903Y-20077021D01*
X13972045Y-20077021D02*
X13972045Y-19877021D01*
X13952998Y-19905593D01*
X13933950Y-19924640D01*
X13914903Y-19934164D01*
X14095855Y-19877021D02*
X14219664Y-19877021D01*
X14152998Y-19953212D01*
X14181569Y-19953212D01*
X14200617Y-19962735D01*
X14210141Y-19972259D01*
X14219664Y-19991307D01*
X14219664Y-20038926D01*
X14210141Y-20057974D01*
X14200617Y-20067497D01*
X14181569Y-20077021D01*
X14124426Y-20077021D01*
X14105379Y-20067497D01*
X14095855Y-20057974D01*
X14343474Y-19877021D02*
X14362522Y-19877021D01*
X14381569Y-19886545D01*
X14391093Y-19896069D01*
X14400617Y-19915116D01*
X14410141Y-19953212D01*
X14410141Y-20000831D01*
X14400617Y-20038926D01*
X14391093Y-20057974D01*
X14381569Y-20067497D01*
X14362522Y-20077021D01*
X14343474Y-20077021D01*
X14324426Y-20067497D01*
X14314903Y-20057974D01*
X14305379Y-20038926D01*
X14295855Y-20000831D01*
X14295855Y-19953212D01*
X14305379Y-19915116D01*
X14314903Y-19896069D01*
X14324426Y-19886545D01*
X14343474Y-19877021D01*
X14486331Y-19877021D02*
X14486331Y-19915116D01*
X14562522Y-19877021D02*
X14562522Y-19915116D01*
X14857760Y-20153212D02*
X14848236Y-20143688D01*
X14829188Y-20115116D01*
X14819664Y-20096069D01*
X14810141Y-20067497D01*
X14800617Y-20019878D01*
X14800617Y-19981783D01*
X14810141Y-19934164D01*
X14819664Y-19905593D01*
X14829188Y-19886545D01*
X14848236Y-19857974D01*
X14857760Y-19848450D01*
X14943474Y-20077021D02*
X14981569Y-20077021D01*
X15000617Y-20067497D01*
X15010141Y-20057974D01*
X15029188Y-20029402D01*
X15038712Y-19991307D01*
X15038712Y-19915116D01*
X15029188Y-19896069D01*
X15019664Y-19886545D01*
X15000617Y-19877021D01*
X14962522Y-19877021D01*
X14943474Y-19886545D01*
X14933950Y-19896069D01*
X14924426Y-19915116D01*
X14924426Y-19962735D01*
X14933950Y-19981783D01*
X14943474Y-19991307D01*
X14962522Y-20000831D01*
X15000617Y-20000831D01*
X15019664Y-19991307D01*
X15029188Y-19981783D01*
X15038712Y-19962735D01*
X15152998Y-19962735D02*
X15133950Y-19953212D01*
X15124426Y-19943688D01*
X15114903Y-19924640D01*
X15114903Y-19915116D01*
X15124426Y-19896069D01*
X15133950Y-19886545D01*
X15152998Y-19877021D01*
X15191093Y-19877021D01*
X15210141Y-19886545D01*
X15219664Y-19896069D01*
X15229188Y-19915116D01*
X15229188Y-19924640D01*
X15219664Y-19943688D01*
X15210141Y-19953212D01*
X15191093Y-19962735D01*
X15152998Y-19962735D01*
X15133950Y-19972259D01*
X15124426Y-19981783D01*
X15114903Y-20000831D01*
X15114903Y-20038926D01*
X15124426Y-20057974D01*
X15133950Y-20067497D01*
X15152998Y-20077021D01*
X15191093Y-20077021D01*
X15210141Y-20067497D01*
X15219664Y-20057974D01*
X15229188Y-20038926D01*
X15229188Y-20000831D01*
X15219664Y-19981783D01*
X15210141Y-19972259D01*
X15191093Y-19962735D01*
X15467283Y-20077021D02*
X15467283Y-19877021D01*
X15552998Y-20077021D02*
X15552998Y-19972259D01*
X15543474Y-19953212D01*
X15524426Y-19943688D01*
X15495855Y-19943688D01*
X15476807Y-19953212D01*
X15467283Y-19962735D01*
X15676807Y-20077021D02*
X15657760Y-20067497D01*
X15648236Y-20057974D01*
X15638712Y-20038926D01*
X15638712Y-19981783D01*
X15648236Y-19962735D01*
X15657760Y-19953212D01*
X15676807Y-19943688D01*
X15705379Y-19943688D01*
X15724426Y-19953212D01*
X15733950Y-19962735D01*
X15743474Y-19981783D01*
X15743474Y-20038926D01*
X15733950Y-20057974D01*
X15724426Y-20067497D01*
X15705379Y-20077021D01*
X15676807Y-20077021D01*
X15857760Y-20077021D02*
X15838712Y-20067497D01*
X15829188Y-20048450D01*
X15829188Y-19877021D01*
X16010141Y-20067497D02*
X15991093Y-20077021D01*
X15952998Y-20077021D01*
X15933950Y-20067497D01*
X15924426Y-20048450D01*
X15924426Y-19972259D01*
X15933950Y-19953212D01*
X15952998Y-19943688D01*
X15991093Y-19943688D01*
X16010141Y-19953212D01*
X16019664Y-19972259D01*
X16019664Y-19991307D01*
X15924426Y-20010355D01*
X16095855Y-20067497D02*
X16114903Y-20077021D01*
X16152998Y-20077021D01*
X16172045Y-20067497D01*
X16181569Y-20048450D01*
X16181569Y-20038926D01*
X16172045Y-20019878D01*
X16152998Y-20010355D01*
X16124426Y-20010355D01*
X16105379Y-20000831D01*
X16095855Y-19981783D01*
X16095855Y-19972259D01*
X16105379Y-19953212D01*
X16124426Y-19943688D01*
X16152998Y-19943688D01*
X16172045Y-19953212D01*
X16248236Y-20153212D02*
X16257760Y-20143688D01*
X16276807Y-20115116D01*
X16286331Y-20096069D01*
X16295855Y-20067497D01*
X16305379Y-20019878D01*
X16305379Y-19981783D01*
X16295855Y-19934164D01*
X16286331Y-19905593D01*
X16276807Y-19886545D01*
X16257760Y-19857974D01*
X16248236Y-19848450D01*
D13*
X11285855Y-20250545D02*
G75*
G03*
X11285855Y-20250545I-25000J0D01*
G01*
D11*
X11581569Y-20141021D02*
X11600617Y-20141021D01*
X11619664Y-20150545D01*
X11629188Y-20160069D01*
X11638712Y-20179116D01*
X11648236Y-20217212D01*
X11648236Y-20264831D01*
X11638712Y-20302926D01*
X11629188Y-20321974D01*
X11619664Y-20331497D01*
X11600617Y-20341021D01*
X11581569Y-20341021D01*
X11562522Y-20331497D01*
X11552998Y-20321974D01*
X11543474Y-20302926D01*
X11533950Y-20264831D01*
X11533950Y-20217212D01*
X11543474Y-20179116D01*
X11552998Y-20160069D01*
X11562522Y-20150545D01*
X11581569Y-20141021D01*
X11733950Y-20321974D02*
X11743474Y-20331497D01*
X11733950Y-20341021D01*
X11724426Y-20331497D01*
X11733950Y-20321974D01*
X11733950Y-20341021D01*
X11924426Y-20141021D02*
X11829188Y-20141021D01*
X11819664Y-20236259D01*
X11829188Y-20226735D01*
X11848236Y-20217212D01*
X11895855Y-20217212D01*
X11914903Y-20226735D01*
X11924426Y-20236259D01*
X11933950Y-20255307D01*
X11933950Y-20302926D01*
X11924426Y-20321974D01*
X11914903Y-20331497D01*
X11895855Y-20341021D01*
X11848236Y-20341021D01*
X11829188Y-20331497D01*
X11819664Y-20321974D01*
X12057760Y-20141021D02*
X12076807Y-20141021D01*
X12095855Y-20150545D01*
X12105379Y-20160069D01*
X12114903Y-20179116D01*
X12124426Y-20217212D01*
X12124426Y-20264831D01*
X12114903Y-20302926D01*
X12105379Y-20321974D01*
X12095855Y-20331497D01*
X12076807Y-20341021D01*
X12057760Y-20341021D01*
X12038712Y-20331497D01*
X12029188Y-20321974D01*
X12019664Y-20302926D01*
X12010141Y-20264831D01*
X12010141Y-20217212D01*
X12019664Y-20179116D01*
X12029188Y-20160069D01*
X12038712Y-20150545D01*
X12057760Y-20141021D01*
X12248236Y-20141021D02*
X12267283Y-20141021D01*
X12286331Y-20150545D01*
X12295855Y-20160069D01*
X12305379Y-20179116D01*
X12314903Y-20217212D01*
X12314903Y-20264831D01*
X12305379Y-20302926D01*
X12295855Y-20321974D01*
X12286331Y-20331497D01*
X12267283Y-20341021D01*
X12248236Y-20341021D01*
X12229188Y-20331497D01*
X12219664Y-20321974D01*
X12210141Y-20302926D01*
X12200617Y-20264831D01*
X12200617Y-20217212D01*
X12210141Y-20179116D01*
X12219664Y-20160069D01*
X12229188Y-20150545D01*
X12248236Y-20141021D01*
X12400617Y-20341021D02*
X12400617Y-20207688D01*
X12400617Y-20226735D02*
X12410141Y-20217212D01*
X12429188Y-20207688D01*
X12457760Y-20207688D01*
X12476807Y-20217212D01*
X12486331Y-20236259D01*
X12486331Y-20341021D01*
X12486331Y-20236259D02*
X12495855Y-20217212D01*
X12514903Y-20207688D01*
X12543474Y-20207688D01*
X12562522Y-20217212D01*
X12572045Y-20236259D01*
X12572045Y-20341021D01*
X12667283Y-20341021D02*
X12667283Y-20207688D01*
X12667283Y-20226735D02*
X12676807Y-20217212D01*
X12695855Y-20207688D01*
X12724426Y-20207688D01*
X12743474Y-20217212D01*
X12752998Y-20236259D01*
X12752998Y-20341021D01*
X12752998Y-20236259D02*
X12762522Y-20217212D01*
X12781569Y-20207688D01*
X12810141Y-20207688D01*
X12829188Y-20217212D01*
X12838712Y-20236259D01*
X12838712Y-20341021D01*
X13229188Y-20131497D02*
X13057760Y-20388640D01*
X13486331Y-20141021D02*
X13505379Y-20141021D01*
X13524426Y-20150545D01*
X13533950Y-20160069D01*
X13543474Y-20179116D01*
X13552998Y-20217212D01*
X13552998Y-20264831D01*
X13543474Y-20302926D01*
X13533950Y-20321974D01*
X13524426Y-20331497D01*
X13505379Y-20341021D01*
X13486331Y-20341021D01*
X13467283Y-20331497D01*
X13457760Y-20321974D01*
X13448236Y-20302926D01*
X13438712Y-20264831D01*
X13438712Y-20217212D01*
X13448236Y-20179116D01*
X13457760Y-20160069D01*
X13467283Y-20150545D01*
X13486331Y-20141021D01*
X13638712Y-20321974D02*
X13648236Y-20331497D01*
X13638712Y-20341021D01*
X13629188Y-20331497D01*
X13638712Y-20321974D01*
X13638712Y-20341021D01*
X13772045Y-20141021D02*
X13791093Y-20141021D01*
X13810141Y-20150545D01*
X13819664Y-20160069D01*
X13829188Y-20179116D01*
X13838712Y-20217212D01*
X13838712Y-20264831D01*
X13829188Y-20302926D01*
X13819664Y-20321974D01*
X13810141Y-20331497D01*
X13791093Y-20341021D01*
X13772045Y-20341021D01*
X13752998Y-20331497D01*
X13743474Y-20321974D01*
X13733950Y-20302926D01*
X13724426Y-20264831D01*
X13724426Y-20217212D01*
X13733950Y-20179116D01*
X13743474Y-20160069D01*
X13752998Y-20150545D01*
X13772045Y-20141021D01*
X14029188Y-20341021D02*
X13914903Y-20341021D01*
X13972045Y-20341021D02*
X13972045Y-20141021D01*
X13952998Y-20169593D01*
X13933950Y-20188640D01*
X13914903Y-20198164D01*
X14124426Y-20341021D02*
X14162522Y-20341021D01*
X14181569Y-20331497D01*
X14191093Y-20321974D01*
X14210141Y-20293402D01*
X14219664Y-20255307D01*
X14219664Y-20179116D01*
X14210141Y-20160069D01*
X14200617Y-20150545D01*
X14181569Y-20141021D01*
X14143474Y-20141021D01*
X14124426Y-20150545D01*
X14114903Y-20160069D01*
X14105379Y-20179116D01*
X14105379Y-20226735D01*
X14114903Y-20245783D01*
X14124426Y-20255307D01*
X14143474Y-20264831D01*
X14181569Y-20264831D01*
X14200617Y-20255307D01*
X14210141Y-20245783D01*
X14219664Y-20226735D01*
X14286331Y-20141021D02*
X14419664Y-20141021D01*
X14333950Y-20341021D01*
X14486331Y-20141021D02*
X14486331Y-20179116D01*
X14562522Y-20141021D02*
X14562522Y-20179116D01*
X14857760Y-20417212D02*
X14848236Y-20407688D01*
X14829188Y-20379116D01*
X14819664Y-20360069D01*
X14810141Y-20331497D01*
X14800617Y-20283878D01*
X14800617Y-20245783D01*
X14810141Y-20198164D01*
X14819664Y-20169593D01*
X14829188Y-20150545D01*
X14848236Y-20121974D01*
X14857760Y-20112450D01*
X14972045Y-20141021D02*
X14991093Y-20141021D01*
X15010141Y-20150545D01*
X15019664Y-20160069D01*
X15029188Y-20179116D01*
X15038712Y-20217212D01*
X15038712Y-20264831D01*
X15029188Y-20302926D01*
X15019664Y-20321974D01*
X15010141Y-20331497D01*
X14991093Y-20341021D01*
X14972045Y-20341021D01*
X14952998Y-20331497D01*
X14943474Y-20321974D01*
X14933950Y-20302926D01*
X14924426Y-20264831D01*
X14924426Y-20217212D01*
X14933950Y-20179116D01*
X14943474Y-20160069D01*
X14952998Y-20150545D01*
X14972045Y-20141021D01*
X15276807Y-20341021D02*
X15276807Y-20141021D01*
X15362522Y-20341021D02*
X15362522Y-20236259D01*
X15352998Y-20217212D01*
X15333950Y-20207688D01*
X15305379Y-20207688D01*
X15286331Y-20217212D01*
X15276807Y-20226735D01*
X15486331Y-20341021D02*
X15467283Y-20331497D01*
X15457760Y-20321974D01*
X15448236Y-20302926D01*
X15448236Y-20245783D01*
X15457760Y-20226735D01*
X15467283Y-20217212D01*
X15486331Y-20207688D01*
X15514903Y-20207688D01*
X15533950Y-20217212D01*
X15543474Y-20226735D01*
X15552998Y-20245783D01*
X15552998Y-20302926D01*
X15543474Y-20321974D01*
X15533950Y-20331497D01*
X15514903Y-20341021D01*
X15486331Y-20341021D01*
X15667283Y-20341021D02*
X15648236Y-20331497D01*
X15638712Y-20312450D01*
X15638712Y-20141021D01*
X15819664Y-20331497D02*
X15800617Y-20341021D01*
X15762522Y-20341021D01*
X15743474Y-20331497D01*
X15733950Y-20312450D01*
X15733950Y-20236259D01*
X15743474Y-20217212D01*
X15762522Y-20207688D01*
X15800617Y-20207688D01*
X15819664Y-20217212D01*
X15829188Y-20236259D01*
X15829188Y-20255307D01*
X15733950Y-20274355D01*
X15905379Y-20331497D02*
X15924426Y-20341021D01*
X15962522Y-20341021D01*
X15981569Y-20331497D01*
X15991093Y-20312450D01*
X15991093Y-20302926D01*
X15981569Y-20283878D01*
X15962522Y-20274355D01*
X15933950Y-20274355D01*
X15914903Y-20264831D01*
X15905379Y-20245783D01*
X15905379Y-20236259D01*
X15914903Y-20217212D01*
X15933950Y-20207688D01*
X15962522Y-20207688D01*
X15981569Y-20217212D01*
X16229188Y-20264831D02*
X16381569Y-20264831D01*
X16305379Y-20341021D02*
X16305379Y-20188640D01*
X16619664Y-20160069D02*
X16629188Y-20150545D01*
X16648236Y-20141021D01*
X16695855Y-20141021D01*
X16714903Y-20150545D01*
X16724426Y-20160069D01*
X16733950Y-20179116D01*
X16733950Y-20198164D01*
X16724426Y-20226735D01*
X16610141Y-20341021D01*
X16733950Y-20341021D01*
X16962522Y-20331497D02*
X16981569Y-20341021D01*
X17019665Y-20341021D01*
X17038712Y-20331497D01*
X17048236Y-20312450D01*
X17048236Y-20302926D01*
X17038712Y-20283878D01*
X17019665Y-20274355D01*
X16991093Y-20274355D01*
X16972045Y-20264831D01*
X16962522Y-20245783D01*
X16962522Y-20236259D01*
X16972045Y-20217212D01*
X16991093Y-20207688D01*
X17019665Y-20207688D01*
X17038712Y-20217212D01*
X17162522Y-20341021D02*
X17143474Y-20331497D01*
X17133950Y-20312450D01*
X17133950Y-20141021D01*
X17267284Y-20341021D02*
X17248236Y-20331497D01*
X17238712Y-20321974D01*
X17229188Y-20302926D01*
X17229188Y-20245783D01*
X17238712Y-20226735D01*
X17248236Y-20217212D01*
X17267284Y-20207688D01*
X17295855Y-20207688D01*
X17314903Y-20217212D01*
X17324426Y-20226735D01*
X17333950Y-20245783D01*
X17333950Y-20302926D01*
X17324426Y-20321974D01*
X17314903Y-20331497D01*
X17295855Y-20341021D01*
X17267284Y-20341021D01*
X17391093Y-20207688D02*
X17467284Y-20207688D01*
X17419665Y-20141021D02*
X17419665Y-20312450D01*
X17429188Y-20331497D01*
X17448236Y-20341021D01*
X17467284Y-20341021D01*
X17524426Y-20331497D02*
X17543474Y-20341021D01*
X17581569Y-20341021D01*
X17600617Y-20331497D01*
X17610141Y-20312450D01*
X17610141Y-20302926D01*
X17600617Y-20283878D01*
X17581569Y-20274355D01*
X17552998Y-20274355D01*
X17533950Y-20264831D01*
X17524426Y-20245783D01*
X17524426Y-20236259D01*
X17533950Y-20217212D01*
X17552998Y-20207688D01*
X17581569Y-20207688D01*
X17600617Y-20217212D01*
X17676807Y-20417212D02*
X17686331Y-20407688D01*
X17705379Y-20379116D01*
X17714903Y-20360069D01*
X17724426Y-20331497D01*
X17733950Y-20283878D01*
X17733950Y-20245783D01*
X17724426Y-20198164D01*
X17714903Y-20169593D01*
X17705379Y-20150545D01*
X17686331Y-20121974D01*
X17676807Y-20112450D01*
D14*
X11235855Y-20464545D02*
X11235855Y-20564545D01*
X11185855Y-20514545D02*
X11285855Y-20514545D01*
D11*
X11648236Y-20605021D02*
X11533950Y-20605021D01*
X11591093Y-20605021D02*
X11591093Y-20405021D01*
X11572045Y-20433593D01*
X11552998Y-20452640D01*
X11533950Y-20462164D01*
X11733950Y-20585974D02*
X11743474Y-20595497D01*
X11733950Y-20605021D01*
X11724426Y-20595497D01*
X11733950Y-20585974D01*
X11733950Y-20605021D01*
X11867283Y-20405021D02*
X11886331Y-20405021D01*
X11905379Y-20414545D01*
X11914903Y-20424069D01*
X11924426Y-20443116D01*
X11933950Y-20481212D01*
X11933950Y-20528831D01*
X11924426Y-20566926D01*
X11914903Y-20585974D01*
X11905379Y-20595497D01*
X11886331Y-20605021D01*
X11867283Y-20605021D01*
X11848236Y-20595497D01*
X11838712Y-20585974D01*
X11829188Y-20566926D01*
X11819664Y-20528831D01*
X11819664Y-20481212D01*
X11829188Y-20443116D01*
X11838712Y-20424069D01*
X11848236Y-20414545D01*
X11867283Y-20405021D01*
X12057760Y-20405021D02*
X12076807Y-20405021D01*
X12095855Y-20414545D01*
X12105379Y-20424069D01*
X12114903Y-20443116D01*
X12124426Y-20481212D01*
X12124426Y-20528831D01*
X12114903Y-20566926D01*
X12105379Y-20585974D01*
X12095855Y-20595497D01*
X12076807Y-20605021D01*
X12057760Y-20605021D01*
X12038712Y-20595497D01*
X12029188Y-20585974D01*
X12019664Y-20566926D01*
X12010141Y-20528831D01*
X12010141Y-20481212D01*
X12019664Y-20443116D01*
X12029188Y-20424069D01*
X12038712Y-20414545D01*
X12057760Y-20405021D01*
X12248236Y-20405021D02*
X12267283Y-20405021D01*
X12286331Y-20414545D01*
X12295855Y-20424069D01*
X12305379Y-20443116D01*
X12314903Y-20481212D01*
X12314903Y-20528831D01*
X12305379Y-20566926D01*
X12295855Y-20585974D01*
X12286331Y-20595497D01*
X12267283Y-20605021D01*
X12248236Y-20605021D01*
X12229188Y-20595497D01*
X12219664Y-20585974D01*
X12210141Y-20566926D01*
X12200617Y-20528831D01*
X12200617Y-20481212D01*
X12210141Y-20443116D01*
X12219664Y-20424069D01*
X12229188Y-20414545D01*
X12248236Y-20405021D01*
X12400617Y-20605021D02*
X12400617Y-20471688D01*
X12400617Y-20490735D02*
X12410141Y-20481212D01*
X12429188Y-20471688D01*
X12457760Y-20471688D01*
X12476807Y-20481212D01*
X12486331Y-20500259D01*
X12486331Y-20605021D01*
X12486331Y-20500259D02*
X12495855Y-20481212D01*
X12514903Y-20471688D01*
X12543474Y-20471688D01*
X12562522Y-20481212D01*
X12572045Y-20500259D01*
X12572045Y-20605021D01*
X12667283Y-20605021D02*
X12667283Y-20471688D01*
X12667283Y-20490735D02*
X12676807Y-20481212D01*
X12695855Y-20471688D01*
X12724426Y-20471688D01*
X12743474Y-20481212D01*
X12752998Y-20500259D01*
X12752998Y-20605021D01*
X12752998Y-20500259D02*
X12762522Y-20481212D01*
X12781569Y-20471688D01*
X12810141Y-20471688D01*
X12829188Y-20481212D01*
X12838712Y-20500259D01*
X12838712Y-20605021D01*
X13229188Y-20395497D02*
X13057760Y-20652640D01*
X13486331Y-20405021D02*
X13505379Y-20405021D01*
X13524426Y-20414545D01*
X13533950Y-20424069D01*
X13543474Y-20443116D01*
X13552998Y-20481212D01*
X13552998Y-20528831D01*
X13543474Y-20566926D01*
X13533950Y-20585974D01*
X13524426Y-20595497D01*
X13505379Y-20605021D01*
X13486331Y-20605021D01*
X13467283Y-20595497D01*
X13457760Y-20585974D01*
X13448236Y-20566926D01*
X13438712Y-20528831D01*
X13438712Y-20481212D01*
X13448236Y-20443116D01*
X13457760Y-20424069D01*
X13467283Y-20414545D01*
X13486331Y-20405021D01*
X13638712Y-20585974D02*
X13648236Y-20595497D01*
X13638712Y-20605021D01*
X13629188Y-20595497D01*
X13638712Y-20585974D01*
X13638712Y-20605021D01*
X13772045Y-20405021D02*
X13791093Y-20405021D01*
X13810141Y-20414545D01*
X13819664Y-20424069D01*
X13829188Y-20443116D01*
X13838712Y-20481212D01*
X13838712Y-20528831D01*
X13829188Y-20566926D01*
X13819664Y-20585974D01*
X13810141Y-20595497D01*
X13791093Y-20605021D01*
X13772045Y-20605021D01*
X13752998Y-20595497D01*
X13743474Y-20585974D01*
X13733950Y-20566926D01*
X13724426Y-20528831D01*
X13724426Y-20481212D01*
X13733950Y-20443116D01*
X13743474Y-20424069D01*
X13752998Y-20414545D01*
X13772045Y-20405021D01*
X13905379Y-20405021D02*
X14029188Y-20405021D01*
X13962522Y-20481212D01*
X13991093Y-20481212D01*
X14010141Y-20490735D01*
X14019664Y-20500259D01*
X14029188Y-20519307D01*
X14029188Y-20566926D01*
X14019664Y-20585974D01*
X14010141Y-20595497D01*
X13991093Y-20605021D01*
X13933950Y-20605021D01*
X13914903Y-20595497D01*
X13905379Y-20585974D01*
X14124426Y-20605021D02*
X14162522Y-20605021D01*
X14181569Y-20595497D01*
X14191093Y-20585974D01*
X14210141Y-20557402D01*
X14219664Y-20519307D01*
X14219664Y-20443116D01*
X14210141Y-20424069D01*
X14200617Y-20414545D01*
X14181569Y-20405021D01*
X14143474Y-20405021D01*
X14124426Y-20414545D01*
X14114903Y-20424069D01*
X14105379Y-20443116D01*
X14105379Y-20490735D01*
X14114903Y-20509783D01*
X14124426Y-20519307D01*
X14143474Y-20528831D01*
X14181569Y-20528831D01*
X14200617Y-20519307D01*
X14210141Y-20509783D01*
X14219664Y-20490735D01*
X14391093Y-20471688D02*
X14391093Y-20605021D01*
X14343474Y-20395497D02*
X14295855Y-20538355D01*
X14419664Y-20538355D01*
X14486331Y-20405021D02*
X14486331Y-20443116D01*
X14562522Y-20405021D02*
X14562522Y-20443116D01*
X14857760Y-20681212D02*
X14848236Y-20671688D01*
X14829188Y-20643116D01*
X14819664Y-20624069D01*
X14810141Y-20595497D01*
X14800617Y-20547878D01*
X14800617Y-20509783D01*
X14810141Y-20462164D01*
X14819664Y-20433593D01*
X14829188Y-20414545D01*
X14848236Y-20385974D01*
X14857760Y-20376450D01*
X15038712Y-20605021D02*
X14924426Y-20605021D01*
X14981569Y-20605021D02*
X14981569Y-20405021D01*
X14962522Y-20433593D01*
X14943474Y-20452640D01*
X14924426Y-20462164D01*
X15210141Y-20405021D02*
X15172045Y-20405021D01*
X15152998Y-20414545D01*
X15143474Y-20424069D01*
X15124426Y-20452640D01*
X15114903Y-20490735D01*
X15114903Y-20566926D01*
X15124426Y-20585974D01*
X15133950Y-20595497D01*
X15152998Y-20605021D01*
X15191093Y-20605021D01*
X15210141Y-20595497D01*
X15219664Y-20585974D01*
X15229188Y-20566926D01*
X15229188Y-20519307D01*
X15219664Y-20500259D01*
X15210141Y-20490735D01*
X15191093Y-20481212D01*
X15152998Y-20481212D01*
X15133950Y-20490735D01*
X15124426Y-20500259D01*
X15114903Y-20519307D01*
X15467283Y-20605021D02*
X15467283Y-20405021D01*
X15552998Y-20605021D02*
X15552998Y-20500259D01*
X15543474Y-20481212D01*
X15524426Y-20471688D01*
X15495855Y-20471688D01*
X15476807Y-20481212D01*
X15467283Y-20490735D01*
X15676807Y-20605021D02*
X15657760Y-20595497D01*
X15648236Y-20585974D01*
X15638712Y-20566926D01*
X15638712Y-20509783D01*
X15648236Y-20490735D01*
X15657760Y-20481212D01*
X15676807Y-20471688D01*
X15705379Y-20471688D01*
X15724426Y-20481212D01*
X15733950Y-20490735D01*
X15743474Y-20509783D01*
X15743474Y-20566926D01*
X15733950Y-20585974D01*
X15724426Y-20595497D01*
X15705379Y-20605021D01*
X15676807Y-20605021D01*
X15857760Y-20605021D02*
X15838712Y-20595497D01*
X15829188Y-20576450D01*
X15829188Y-20405021D01*
X16010141Y-20595497D02*
X15991093Y-20605021D01*
X15952998Y-20605021D01*
X15933950Y-20595497D01*
X15924426Y-20576450D01*
X15924426Y-20500259D01*
X15933950Y-20481212D01*
X15952998Y-20471688D01*
X15991093Y-20471688D01*
X16010141Y-20481212D01*
X16019664Y-20500259D01*
X16019664Y-20519307D01*
X15924426Y-20538355D01*
X16095855Y-20595497D02*
X16114903Y-20605021D01*
X16152998Y-20605021D01*
X16172045Y-20595497D01*
X16181569Y-20576450D01*
X16181569Y-20566926D01*
X16172045Y-20547878D01*
X16152998Y-20538355D01*
X16124426Y-20538355D01*
X16105379Y-20528831D01*
X16095855Y-20509783D01*
X16095855Y-20500259D01*
X16105379Y-20481212D01*
X16124426Y-20471688D01*
X16152998Y-20471688D01*
X16172045Y-20481212D01*
X16248236Y-20681212D02*
X16257760Y-20671688D01*
X16276807Y-20643116D01*
X16286331Y-20624069D01*
X16295855Y-20595497D01*
X16305379Y-20547878D01*
X16305379Y-20509783D01*
X16295855Y-20462164D01*
X16286331Y-20433593D01*
X16276807Y-20414545D01*
X16257760Y-20385974D01*
X16248236Y-20376450D01*
D15*
X11270918Y-20814608D02*
X11270918Y-20742482D01*
X11198792Y-20742482D01*
X11198792Y-20814608D01*
X11270918Y-20814608D01*
D11*
X11648236Y-20869021D02*
X11533950Y-20869021D01*
X11591093Y-20869021D02*
X11591093Y-20669021D01*
X11572045Y-20697593D01*
X11552998Y-20716640D01*
X11533950Y-20726164D01*
X11733950Y-20849974D02*
X11743474Y-20859497D01*
X11733950Y-20869021D01*
X11724426Y-20859497D01*
X11733950Y-20849974D01*
X11733950Y-20869021D01*
X11867283Y-20669021D02*
X11886331Y-20669021D01*
X11905379Y-20678545D01*
X11914903Y-20688069D01*
X11924426Y-20707116D01*
X11933950Y-20745212D01*
X11933950Y-20792831D01*
X11924426Y-20830926D01*
X11914903Y-20849974D01*
X11905379Y-20859497D01*
X11886331Y-20869021D01*
X11867283Y-20869021D01*
X11848236Y-20859497D01*
X11838712Y-20849974D01*
X11829188Y-20830926D01*
X11819664Y-20792831D01*
X11819664Y-20745212D01*
X11829188Y-20707116D01*
X11838712Y-20688069D01*
X11848236Y-20678545D01*
X11867283Y-20669021D01*
X12010141Y-20688069D02*
X12019664Y-20678545D01*
X12038712Y-20669021D01*
X12086331Y-20669021D01*
X12105379Y-20678545D01*
X12114903Y-20688069D01*
X12124426Y-20707116D01*
X12124426Y-20726164D01*
X12114903Y-20754735D01*
X12000617Y-20869021D01*
X12124426Y-20869021D01*
X12248236Y-20669021D02*
X12267283Y-20669021D01*
X12286331Y-20678545D01*
X12295855Y-20688069D01*
X12305379Y-20707116D01*
X12314903Y-20745212D01*
X12314903Y-20792831D01*
X12305379Y-20830926D01*
X12295855Y-20849974D01*
X12286331Y-20859497D01*
X12267283Y-20869021D01*
X12248236Y-20869021D01*
X12229188Y-20859497D01*
X12219664Y-20849974D01*
X12210141Y-20830926D01*
X12200617Y-20792831D01*
X12200617Y-20745212D01*
X12210141Y-20707116D01*
X12219664Y-20688069D01*
X12229188Y-20678545D01*
X12248236Y-20669021D01*
X12400617Y-20869021D02*
X12400617Y-20735688D01*
X12400617Y-20754735D02*
X12410141Y-20745212D01*
X12429188Y-20735688D01*
X12457760Y-20735688D01*
X12476807Y-20745212D01*
X12486331Y-20764259D01*
X12486331Y-20869021D01*
X12486331Y-20764259D02*
X12495855Y-20745212D01*
X12514903Y-20735688D01*
X12543474Y-20735688D01*
X12562522Y-20745212D01*
X12572045Y-20764259D01*
X12572045Y-20869021D01*
X12667283Y-20869021D02*
X12667283Y-20735688D01*
X12667283Y-20754735D02*
X12676807Y-20745212D01*
X12695855Y-20735688D01*
X12724426Y-20735688D01*
X12743474Y-20745212D01*
X12752998Y-20764259D01*
X12752998Y-20869021D01*
X12752998Y-20764259D02*
X12762522Y-20745212D01*
X12781569Y-20735688D01*
X12810141Y-20735688D01*
X12829188Y-20745212D01*
X12838712Y-20764259D01*
X12838712Y-20869021D01*
X13229188Y-20659497D02*
X13057760Y-20916640D01*
X13486331Y-20669021D02*
X13505379Y-20669021D01*
X13524426Y-20678545D01*
X13533950Y-20688069D01*
X13543474Y-20707116D01*
X13552998Y-20745212D01*
X13552998Y-20792831D01*
X13543474Y-20830926D01*
X13533950Y-20849974D01*
X13524426Y-20859497D01*
X13505379Y-20869021D01*
X13486331Y-20869021D01*
X13467283Y-20859497D01*
X13457760Y-20849974D01*
X13448236Y-20830926D01*
X13438712Y-20792831D01*
X13438712Y-20745212D01*
X13448236Y-20707116D01*
X13457760Y-20688069D01*
X13467283Y-20678545D01*
X13486331Y-20669021D01*
X13638712Y-20849974D02*
X13648236Y-20859497D01*
X13638712Y-20869021D01*
X13629188Y-20859497D01*
X13638712Y-20849974D01*
X13638712Y-20869021D01*
X13772045Y-20669021D02*
X13791093Y-20669021D01*
X13810141Y-20678545D01*
X13819664Y-20688069D01*
X13829188Y-20707116D01*
X13838712Y-20745212D01*
X13838712Y-20792831D01*
X13829188Y-20830926D01*
X13819664Y-20849974D01*
X13810141Y-20859497D01*
X13791093Y-20869021D01*
X13772045Y-20869021D01*
X13752998Y-20859497D01*
X13743474Y-20849974D01*
X13733950Y-20830926D01*
X13724426Y-20792831D01*
X13724426Y-20745212D01*
X13733950Y-20707116D01*
X13743474Y-20688069D01*
X13752998Y-20678545D01*
X13772045Y-20669021D01*
X14010141Y-20735688D02*
X14010141Y-20869021D01*
X13962522Y-20659497D02*
X13914903Y-20802355D01*
X14038712Y-20802355D01*
X14152998Y-20669021D02*
X14172045Y-20669021D01*
X14191093Y-20678545D01*
X14200617Y-20688069D01*
X14210141Y-20707116D01*
X14219664Y-20745212D01*
X14219664Y-20792831D01*
X14210141Y-20830926D01*
X14200617Y-20849974D01*
X14191093Y-20859497D01*
X14172045Y-20869021D01*
X14152998Y-20869021D01*
X14133950Y-20859497D01*
X14124426Y-20849974D01*
X14114903Y-20830926D01*
X14105379Y-20792831D01*
X14105379Y-20745212D01*
X14114903Y-20707116D01*
X14124426Y-20688069D01*
X14133950Y-20678545D01*
X14152998Y-20669021D01*
X14295855Y-20688069D02*
X14305379Y-20678545D01*
X14324426Y-20669021D01*
X14372045Y-20669021D01*
X14391093Y-20678545D01*
X14400617Y-20688069D01*
X14410141Y-20707116D01*
X14410141Y-20726164D01*
X14400617Y-20754735D01*
X14286331Y-20869021D01*
X14410141Y-20869021D01*
X14486331Y-20669021D02*
X14486331Y-20707116D01*
X14562522Y-20669021D02*
X14562522Y-20707116D01*
X14857760Y-20945212D02*
X14848236Y-20935688D01*
X14829188Y-20907116D01*
X14819664Y-20888069D01*
X14810141Y-20859497D01*
X14800617Y-20811878D01*
X14800617Y-20773783D01*
X14810141Y-20726164D01*
X14819664Y-20697593D01*
X14829188Y-20678545D01*
X14848236Y-20649974D01*
X14857760Y-20640450D01*
X15038712Y-20869021D02*
X14924426Y-20869021D01*
X14981569Y-20869021D02*
X14981569Y-20669021D01*
X14962522Y-20697593D01*
X14943474Y-20716640D01*
X14924426Y-20726164D01*
X15114903Y-20688069D02*
X15124426Y-20678545D01*
X15143474Y-20669021D01*
X15191093Y-20669021D01*
X15210141Y-20678545D01*
X15219664Y-20688069D01*
X15229188Y-20707116D01*
X15229188Y-20726164D01*
X15219664Y-20754735D01*
X15105379Y-20869021D01*
X15229188Y-20869021D01*
X15343474Y-20754735D02*
X15324426Y-20745212D01*
X15314903Y-20735688D01*
X15305379Y-20716640D01*
X15305379Y-20707116D01*
X15314903Y-20688069D01*
X15324426Y-20678545D01*
X15343474Y-20669021D01*
X15381569Y-20669021D01*
X15400617Y-20678545D01*
X15410141Y-20688069D01*
X15419664Y-20707116D01*
X15419664Y-20716640D01*
X15410141Y-20735688D01*
X15400617Y-20745212D01*
X15381569Y-20754735D01*
X15343474Y-20754735D01*
X15324426Y-20764259D01*
X15314903Y-20773783D01*
X15305379Y-20792831D01*
X15305379Y-20830926D01*
X15314903Y-20849974D01*
X15324426Y-20859497D01*
X15343474Y-20869021D01*
X15381569Y-20869021D01*
X15400617Y-20859497D01*
X15410141Y-20849974D01*
X15419664Y-20830926D01*
X15419664Y-20792831D01*
X15410141Y-20773783D01*
X15400617Y-20764259D01*
X15381569Y-20754735D01*
X15657760Y-20869021D02*
X15657760Y-20669021D01*
X15743474Y-20869021D02*
X15743474Y-20764259D01*
X15733950Y-20745212D01*
X15714903Y-20735688D01*
X15686331Y-20735688D01*
X15667283Y-20745212D01*
X15657760Y-20754735D01*
X15867283Y-20869021D02*
X15848236Y-20859497D01*
X15838712Y-20849974D01*
X15829188Y-20830926D01*
X15829188Y-20773783D01*
X15838712Y-20754735D01*
X15848236Y-20745212D01*
X15867283Y-20735688D01*
X15895855Y-20735688D01*
X15914903Y-20745212D01*
X15924426Y-20754735D01*
X15933950Y-20773783D01*
X15933950Y-20830926D01*
X15924426Y-20849974D01*
X15914903Y-20859497D01*
X15895855Y-20869021D01*
X15867283Y-20869021D01*
X16048236Y-20869021D02*
X16029188Y-20859497D01*
X16019664Y-20840450D01*
X16019664Y-20669021D01*
X16200617Y-20859497D02*
X16181569Y-20869021D01*
X16143474Y-20869021D01*
X16124426Y-20859497D01*
X16114903Y-20840450D01*
X16114903Y-20764259D01*
X16124426Y-20745212D01*
X16143474Y-20735688D01*
X16181569Y-20735688D01*
X16200617Y-20745212D01*
X16210141Y-20764259D01*
X16210141Y-20783307D01*
X16114903Y-20802355D01*
X16286331Y-20859497D02*
X16305379Y-20869021D01*
X16343474Y-20869021D01*
X16362522Y-20859497D01*
X16372045Y-20840450D01*
X16372045Y-20830926D01*
X16362522Y-20811878D01*
X16343474Y-20802355D01*
X16314903Y-20802355D01*
X16295855Y-20792831D01*
X16286331Y-20773783D01*
X16286331Y-20764259D01*
X16295855Y-20745212D01*
X16314903Y-20735688D01*
X16343474Y-20735688D01*
X16362522Y-20745212D01*
X16438712Y-20945212D02*
X16448236Y-20935688D01*
X16467283Y-20907116D01*
X16476807Y-20888069D01*
X16486331Y-20859497D01*
X16495855Y-20811878D01*
X16495855Y-20773783D01*
X16486331Y-20726164D01*
X16476807Y-20697593D01*
X16467283Y-20678545D01*
X16448236Y-20649974D01*
X16438712Y-20640450D01*
D16*
X11232355Y-21096045D02*
X11285855Y-21042545D01*
X11232355Y-20989045D01*
X11178855Y-21042545D01*
X11232355Y-21096045D01*
D11*
X11648236Y-21133021D02*
X11533950Y-21133021D01*
X11591093Y-21133021D02*
X11591093Y-20933021D01*
X11572045Y-20961593D01*
X11552998Y-20980640D01*
X11533950Y-20990164D01*
X11733950Y-21113974D02*
X11743474Y-21123497D01*
X11733950Y-21133021D01*
X11724426Y-21123497D01*
X11733950Y-21113974D01*
X11733950Y-21133021D01*
X11867283Y-20933021D02*
X11886331Y-20933021D01*
X11905379Y-20942545D01*
X11914903Y-20952069D01*
X11924426Y-20971116D01*
X11933950Y-21009212D01*
X11933950Y-21056831D01*
X11924426Y-21094926D01*
X11914903Y-21113974D01*
X11905379Y-21123497D01*
X11886331Y-21133021D01*
X11867283Y-21133021D01*
X11848236Y-21123497D01*
X11838712Y-21113974D01*
X11829188Y-21094926D01*
X11819664Y-21056831D01*
X11819664Y-21009212D01*
X11829188Y-20971116D01*
X11838712Y-20952069D01*
X11848236Y-20942545D01*
X11867283Y-20933021D01*
X12000617Y-20933021D02*
X12133950Y-20933021D01*
X12048236Y-21133021D01*
X12248236Y-20933021D02*
X12267283Y-20933021D01*
X12286331Y-20942545D01*
X12295855Y-20952069D01*
X12305379Y-20971116D01*
X12314903Y-21009212D01*
X12314903Y-21056831D01*
X12305379Y-21094926D01*
X12295855Y-21113974D01*
X12286331Y-21123497D01*
X12267283Y-21133021D01*
X12248236Y-21133021D01*
X12229188Y-21123497D01*
X12219664Y-21113974D01*
X12210141Y-21094926D01*
X12200617Y-21056831D01*
X12200617Y-21009212D01*
X12210141Y-20971116D01*
X12219664Y-20952069D01*
X12229188Y-20942545D01*
X12248236Y-20933021D01*
X12400617Y-21133021D02*
X12400617Y-20999688D01*
X12400617Y-21018735D02*
X12410141Y-21009212D01*
X12429188Y-20999688D01*
X12457760Y-20999688D01*
X12476807Y-21009212D01*
X12486331Y-21028259D01*
X12486331Y-21133021D01*
X12486331Y-21028259D02*
X12495855Y-21009212D01*
X12514903Y-20999688D01*
X12543474Y-20999688D01*
X12562522Y-21009212D01*
X12572045Y-21028259D01*
X12572045Y-21133021D01*
X12667283Y-21133021D02*
X12667283Y-20999688D01*
X12667283Y-21018735D02*
X12676807Y-21009212D01*
X12695855Y-20999688D01*
X12724426Y-20999688D01*
X12743474Y-21009212D01*
X12752998Y-21028259D01*
X12752998Y-21133021D01*
X12752998Y-21028259D02*
X12762522Y-21009212D01*
X12781569Y-20999688D01*
X12810141Y-20999688D01*
X12829188Y-21009212D01*
X12838712Y-21028259D01*
X12838712Y-21133021D01*
X13229188Y-20923497D02*
X13057760Y-21180640D01*
X13486331Y-20933021D02*
X13505379Y-20933021D01*
X13524426Y-20942545D01*
X13533950Y-20952069D01*
X13543474Y-20971116D01*
X13552998Y-21009212D01*
X13552998Y-21056831D01*
X13543474Y-21094926D01*
X13533950Y-21113974D01*
X13524426Y-21123497D01*
X13505379Y-21133021D01*
X13486331Y-21133021D01*
X13467283Y-21123497D01*
X13457760Y-21113974D01*
X13448236Y-21094926D01*
X13438712Y-21056831D01*
X13438712Y-21009212D01*
X13448236Y-20971116D01*
X13457760Y-20952069D01*
X13467283Y-20942545D01*
X13486331Y-20933021D01*
X13638712Y-21113974D02*
X13648236Y-21123497D01*
X13638712Y-21133021D01*
X13629188Y-21123497D01*
X13638712Y-21113974D01*
X13638712Y-21133021D01*
X13772045Y-20933021D02*
X13791093Y-20933021D01*
X13810141Y-20942545D01*
X13819664Y-20952069D01*
X13829188Y-20971116D01*
X13838712Y-21009212D01*
X13838712Y-21056831D01*
X13829188Y-21094926D01*
X13819664Y-21113974D01*
X13810141Y-21123497D01*
X13791093Y-21133021D01*
X13772045Y-21133021D01*
X13752998Y-21123497D01*
X13743474Y-21113974D01*
X13733950Y-21094926D01*
X13724426Y-21056831D01*
X13724426Y-21009212D01*
X13733950Y-20971116D01*
X13743474Y-20952069D01*
X13752998Y-20942545D01*
X13772045Y-20933021D01*
X14010141Y-20999688D02*
X14010141Y-21133021D01*
X13962522Y-20923497D02*
X13914903Y-21066355D01*
X14038712Y-21066355D01*
X14105379Y-20952069D02*
X14114903Y-20942545D01*
X14133950Y-20933021D01*
X14181569Y-20933021D01*
X14200617Y-20942545D01*
X14210141Y-20952069D01*
X14219664Y-20971116D01*
X14219664Y-20990164D01*
X14210141Y-21018735D01*
X14095855Y-21133021D01*
X14219664Y-21133021D01*
X14410141Y-21133021D02*
X14295855Y-21133021D01*
X14352998Y-21133021D02*
X14352998Y-20933021D01*
X14333950Y-20961593D01*
X14314903Y-20980640D01*
X14295855Y-20990164D01*
X14486331Y-20933021D02*
X14486331Y-20971116D01*
X14562522Y-20933021D02*
X14562522Y-20971116D01*
X14857760Y-21209212D02*
X14848236Y-21199688D01*
X14829188Y-21171116D01*
X14819664Y-21152069D01*
X14810141Y-21123497D01*
X14800617Y-21075878D01*
X14800617Y-21037783D01*
X14810141Y-20990164D01*
X14819664Y-20961593D01*
X14829188Y-20942545D01*
X14848236Y-20913974D01*
X14857760Y-20904450D01*
X14962522Y-21018735D02*
X14943474Y-21009212D01*
X14933950Y-20999688D01*
X14924426Y-20980640D01*
X14924426Y-20971116D01*
X14933950Y-20952069D01*
X14943474Y-20942545D01*
X14962522Y-20933021D01*
X15000617Y-20933021D01*
X15019664Y-20942545D01*
X15029188Y-20952069D01*
X15038712Y-20971116D01*
X15038712Y-20980640D01*
X15029188Y-20999688D01*
X15019664Y-21009212D01*
X15000617Y-21018735D01*
X14962522Y-21018735D01*
X14943474Y-21028259D01*
X14933950Y-21037783D01*
X14924426Y-21056831D01*
X14924426Y-21094926D01*
X14933950Y-21113974D01*
X14943474Y-21123497D01*
X14962522Y-21133021D01*
X15000617Y-21133021D01*
X15019664Y-21123497D01*
X15029188Y-21113974D01*
X15038712Y-21094926D01*
X15038712Y-21056831D01*
X15029188Y-21037783D01*
X15019664Y-21028259D01*
X15000617Y-21018735D01*
X15276807Y-21133021D02*
X15276807Y-20933021D01*
X15362522Y-21133021D02*
X15362522Y-21028259D01*
X15352998Y-21009212D01*
X15333950Y-20999688D01*
X15305379Y-20999688D01*
X15286331Y-21009212D01*
X15276807Y-21018735D01*
X15486331Y-21133021D02*
X15467283Y-21123497D01*
X15457760Y-21113974D01*
X15448236Y-21094926D01*
X15448236Y-21037783D01*
X15457760Y-21018735D01*
X15467283Y-21009212D01*
X15486331Y-20999688D01*
X15514903Y-20999688D01*
X15533950Y-21009212D01*
X15543474Y-21018735D01*
X15552998Y-21037783D01*
X15552998Y-21094926D01*
X15543474Y-21113974D01*
X15533950Y-21123497D01*
X15514903Y-21133021D01*
X15486331Y-21133021D01*
X15667283Y-21133021D02*
X15648236Y-21123497D01*
X15638712Y-21104450D01*
X15638712Y-20933021D01*
X15819664Y-21123497D02*
X15800617Y-21133021D01*
X15762522Y-21133021D01*
X15743474Y-21123497D01*
X15733950Y-21104450D01*
X15733950Y-21028259D01*
X15743474Y-21009212D01*
X15762522Y-20999688D01*
X15800617Y-20999688D01*
X15819664Y-21009212D01*
X15829188Y-21028259D01*
X15829188Y-21047307D01*
X15733950Y-21066355D01*
X15905379Y-21123497D02*
X15924426Y-21133021D01*
X15962522Y-21133021D01*
X15981569Y-21123497D01*
X15991093Y-21104450D01*
X15991093Y-21094926D01*
X15981569Y-21075878D01*
X15962522Y-21066355D01*
X15933950Y-21066355D01*
X15914903Y-21056831D01*
X15905379Y-21037783D01*
X15905379Y-21028259D01*
X15914903Y-21009212D01*
X15933950Y-20999688D01*
X15962522Y-20999688D01*
X15981569Y-21009212D01*
X16057760Y-21209212D02*
X16067283Y-21199688D01*
X16086331Y-21171116D01*
X16095855Y-21152069D01*
X16105379Y-21123497D01*
X16114903Y-21075878D01*
X16114903Y-21037783D01*
X16105379Y-20990164D01*
X16095855Y-20961593D01*
X16086331Y-20942545D01*
X16067283Y-20913974D01*
X16057760Y-20904450D01*
D17*
X11175855Y-21251545D02*
X11285855Y-21361545D01*
X11285855Y-21251545D02*
X11175855Y-21361545D01*
X11285855Y-21306545D02*
G75*
G03*
X11285855Y-21306545I-55000J0D01*
G01*
D11*
X11648236Y-21397021D02*
X11533950Y-21397021D01*
X11591093Y-21397021D02*
X11591093Y-21197021D01*
X11572045Y-21225593D01*
X11552998Y-21244640D01*
X11533950Y-21254164D01*
X11733950Y-21377974D02*
X11743474Y-21387497D01*
X11733950Y-21397021D01*
X11724426Y-21387497D01*
X11733950Y-21377974D01*
X11733950Y-21397021D01*
X11933950Y-21397021D02*
X11819664Y-21397021D01*
X11876807Y-21397021D02*
X11876807Y-21197021D01*
X11857760Y-21225593D01*
X11838712Y-21244640D01*
X11819664Y-21254164D01*
X12057760Y-21197021D02*
X12076807Y-21197021D01*
X12095855Y-21206545D01*
X12105379Y-21216069D01*
X12114903Y-21235116D01*
X12124426Y-21273212D01*
X12124426Y-21320831D01*
X12114903Y-21358926D01*
X12105379Y-21377974D01*
X12095855Y-21387497D01*
X12076807Y-21397021D01*
X12057760Y-21397021D01*
X12038712Y-21387497D01*
X12029188Y-21377974D01*
X12019664Y-21358926D01*
X12010141Y-21320831D01*
X12010141Y-21273212D01*
X12019664Y-21235116D01*
X12029188Y-21216069D01*
X12038712Y-21206545D01*
X12057760Y-21197021D01*
X12248236Y-21197021D02*
X12267283Y-21197021D01*
X12286331Y-21206545D01*
X12295855Y-21216069D01*
X12305379Y-21235116D01*
X12314903Y-21273212D01*
X12314903Y-21320831D01*
X12305379Y-21358926D01*
X12295855Y-21377974D01*
X12286331Y-21387497D01*
X12267283Y-21397021D01*
X12248236Y-21397021D01*
X12229188Y-21387497D01*
X12219664Y-21377974D01*
X12210141Y-21358926D01*
X12200617Y-21320831D01*
X12200617Y-21273212D01*
X12210141Y-21235116D01*
X12219664Y-21216069D01*
X12229188Y-21206545D01*
X12248236Y-21197021D01*
X12400617Y-21397021D02*
X12400617Y-21263688D01*
X12400617Y-21282735D02*
X12410141Y-21273212D01*
X12429188Y-21263688D01*
X12457760Y-21263688D01*
X12476807Y-21273212D01*
X12486331Y-21292259D01*
X12486331Y-21397021D01*
X12486331Y-21292259D02*
X12495855Y-21273212D01*
X12514903Y-21263688D01*
X12543474Y-21263688D01*
X12562522Y-21273212D01*
X12572045Y-21292259D01*
X12572045Y-21397021D01*
X12667283Y-21397021D02*
X12667283Y-21263688D01*
X12667283Y-21282735D02*
X12676807Y-21273212D01*
X12695855Y-21263688D01*
X12724426Y-21263688D01*
X12743474Y-21273212D01*
X12752998Y-21292259D01*
X12752998Y-21397021D01*
X12752998Y-21292259D02*
X12762522Y-21273212D01*
X12781569Y-21263688D01*
X12810141Y-21263688D01*
X12829188Y-21273212D01*
X12838712Y-21292259D01*
X12838712Y-21397021D01*
X13229188Y-21187497D02*
X13057760Y-21444640D01*
X13486331Y-21197021D02*
X13505379Y-21197021D01*
X13524426Y-21206545D01*
X13533950Y-21216069D01*
X13543474Y-21235116D01*
X13552998Y-21273212D01*
X13552998Y-21320831D01*
X13543474Y-21358926D01*
X13533950Y-21377974D01*
X13524426Y-21387497D01*
X13505379Y-21397021D01*
X13486331Y-21397021D01*
X13467283Y-21387497D01*
X13457760Y-21377974D01*
X13448236Y-21358926D01*
X13438712Y-21320831D01*
X13438712Y-21273212D01*
X13448236Y-21235116D01*
X13457760Y-21216069D01*
X13467283Y-21206545D01*
X13486331Y-21197021D01*
X13638712Y-21377974D02*
X13648236Y-21387497D01*
X13638712Y-21397021D01*
X13629188Y-21387497D01*
X13638712Y-21377974D01*
X13638712Y-21397021D01*
X13772045Y-21197021D02*
X13791093Y-21197021D01*
X13810141Y-21206545D01*
X13819664Y-21216069D01*
X13829188Y-21235116D01*
X13838712Y-21273212D01*
X13838712Y-21320831D01*
X13829188Y-21358926D01*
X13819664Y-21377974D01*
X13810141Y-21387497D01*
X13791093Y-21397021D01*
X13772045Y-21397021D01*
X13752998Y-21387497D01*
X13743474Y-21377974D01*
X13733950Y-21358926D01*
X13724426Y-21320831D01*
X13724426Y-21273212D01*
X13733950Y-21235116D01*
X13743474Y-21216069D01*
X13752998Y-21206545D01*
X13772045Y-21197021D01*
X14010141Y-21263688D02*
X14010141Y-21397021D01*
X13962522Y-21187497D02*
X13914903Y-21330355D01*
X14038712Y-21330355D01*
X14095855Y-21197021D02*
X14219664Y-21197021D01*
X14152998Y-21273212D01*
X14181569Y-21273212D01*
X14200617Y-21282735D01*
X14210141Y-21292259D01*
X14219664Y-21311307D01*
X14219664Y-21358926D01*
X14210141Y-21377974D01*
X14200617Y-21387497D01*
X14181569Y-21397021D01*
X14124426Y-21397021D01*
X14105379Y-21387497D01*
X14095855Y-21377974D01*
X14286331Y-21197021D02*
X14410141Y-21197021D01*
X14343474Y-21273212D01*
X14372045Y-21273212D01*
X14391093Y-21282735D01*
X14400617Y-21292259D01*
X14410141Y-21311307D01*
X14410141Y-21358926D01*
X14400617Y-21377974D01*
X14391093Y-21387497D01*
X14372045Y-21397021D01*
X14314903Y-21397021D01*
X14295855Y-21387497D01*
X14286331Y-21377974D01*
X14486331Y-21197021D02*
X14486331Y-21235116D01*
X14562522Y-21197021D02*
X14562522Y-21235116D01*
X14857760Y-21473212D02*
X14848236Y-21463688D01*
X14829188Y-21435116D01*
X14819664Y-21416069D01*
X14810141Y-21387497D01*
X14800617Y-21339878D01*
X14800617Y-21301783D01*
X14810141Y-21254164D01*
X14819664Y-21225593D01*
X14829188Y-21206545D01*
X14848236Y-21177974D01*
X14857760Y-21168450D01*
X14924426Y-21216069D02*
X14933950Y-21206545D01*
X14952998Y-21197021D01*
X15000617Y-21197021D01*
X15019664Y-21206545D01*
X15029188Y-21216069D01*
X15038712Y-21235116D01*
X15038712Y-21254164D01*
X15029188Y-21282735D01*
X14914903Y-21397021D01*
X15038712Y-21397021D01*
X15210141Y-21263688D02*
X15210141Y-21397021D01*
X15162522Y-21187497D02*
X15114903Y-21330355D01*
X15238712Y-21330355D01*
X15467283Y-21397021D02*
X15467283Y-21197021D01*
X15552998Y-21397021D02*
X15552998Y-21292259D01*
X15543474Y-21273212D01*
X15524426Y-21263688D01*
X15495855Y-21263688D01*
X15476807Y-21273212D01*
X15467283Y-21282735D01*
X15676807Y-21397021D02*
X15657760Y-21387497D01*
X15648236Y-21377974D01*
X15638712Y-21358926D01*
X15638712Y-21301783D01*
X15648236Y-21282735D01*
X15657760Y-21273212D01*
X15676807Y-21263688D01*
X15705379Y-21263688D01*
X15724426Y-21273212D01*
X15733950Y-21282735D01*
X15743474Y-21301783D01*
X15743474Y-21358926D01*
X15733950Y-21377974D01*
X15724426Y-21387497D01*
X15705379Y-21397021D01*
X15676807Y-21397021D01*
X15857760Y-21397021D02*
X15838712Y-21387497D01*
X15829188Y-21368450D01*
X15829188Y-21197021D01*
X16010141Y-21387497D02*
X15991093Y-21397021D01*
X15952998Y-21397021D01*
X15933950Y-21387497D01*
X15924426Y-21368450D01*
X15924426Y-21292259D01*
X15933950Y-21273212D01*
X15952998Y-21263688D01*
X15991093Y-21263688D01*
X16010141Y-21273212D01*
X16019664Y-21292259D01*
X16019664Y-21311307D01*
X15924426Y-21330355D01*
X16095855Y-21387497D02*
X16114903Y-21397021D01*
X16152998Y-21397021D01*
X16172045Y-21387497D01*
X16181569Y-21368450D01*
X16181569Y-21358926D01*
X16172045Y-21339878D01*
X16152998Y-21330355D01*
X16124426Y-21330355D01*
X16105379Y-21320831D01*
X16095855Y-21301783D01*
X16095855Y-21292259D01*
X16105379Y-21273212D01*
X16124426Y-21263688D01*
X16152998Y-21263688D01*
X16172045Y-21273212D01*
X16248236Y-21473212D02*
X16257760Y-21463688D01*
X16276807Y-21435116D01*
X16286331Y-21416069D01*
X16295855Y-21387497D01*
X16305379Y-21339878D01*
X16305379Y-21301783D01*
X16295855Y-21254164D01*
X16286331Y-21225593D01*
X16276807Y-21206545D01*
X16257760Y-21177974D01*
X16248236Y-21168450D01*
M02*
